<svg width="424" height="104" viewBox="0 0 424 104" fill="none" xmlns="http://www.w3.org/2000/svg">
<path d="M-0.000106812 -1.02311e-05H51.9376V8.65627H17.3124V43.2814H34.625V51.9376H17.3124V95.219H51.9376V103.875H-0.000106812V-1.02311e-05ZM147.089 -1.02311e-05L112.464 103.875H95.1513L60.5262 -1.02311e-05H77.8388L108.136 90.8909L138.433 -1.02311e-05H147.089ZM155.711 -1.02311e-05H207.649V8.65627H173.024V43.2814H190.337V51.9376H173.024V95.219H207.649V103.875H155.711V-1.02311e-05ZM216.238 -1.02311e-05H233.55V25.9688L250.863 77.9065V-1.02311e-05H268.175V103.875H250.863L233.55 51.9376V103.875H216.238V-1.02311e-05ZM276.764 -1.02311e-05H346.014V8.65627H320.045V103.875H302.733V8.65627H276.764V-1.02311e-05ZM410.97 21.6407H393.658C393.658 18.0628 393.254 15.0042 392.446 12.465C391.638 9.92586 390.599 8.65627 389.329 8.65627C388.06 8.65627 387.021 9.92586 386.213 12.465C385.405 15.0042 385.001 18.0628 385.001 21.6407C385.001 25.2186 385.405 28.2772 386.213 30.8163C387.021 33.3555 388.06 34.6251 389.329 34.6251C394.062 34.6251 398.505 35.5484 402.66 37.3951C406.931 39.2418 410.624 41.7232 413.74 44.8395C416.856 47.9558 419.338 51.6491 421.185 55.9195C423.031 60.0745 423.955 64.5181 423.955 69.2502C423.955 73.9823 423.031 78.4836 421.185 82.754C419.338 86.909 416.856 90.5446 413.74 93.6609C410.624 96.7772 406.931 99.2586 402.66 101.105C398.505 102.952 394.062 103.875 389.329 103.875C384.597 103.875 380.096 102.952 375.826 101.105C371.671 99.2586 368.035 96.7772 364.919 93.6609C361.802 90.5446 359.321 86.909 357.474 82.754C355.628 78.4836 354.704 73.9823 354.704 69.2502H372.017C372.017 72.8281 372.479 76.2329 373.402 79.4646C374.325 82.5809 375.537 85.2932 377.038 87.6015C378.653 89.9098 380.5 91.7565 382.578 93.1415C384.655 94.5265 386.906 95.219 389.329 95.219C391.753 95.219 394.004 94.5265 396.081 93.1415C398.159 91.7565 399.948 89.9098 401.448 87.6015C403.064 85.2932 404.334 82.5809 405.257 79.4646C406.18 76.2329 406.642 72.8281 406.642 69.2502C406.642 65.6723 406.18 62.3252 405.257 59.2089C404.334 55.9772 403.064 53.2072 401.448 50.8989C399.948 48.5906 398.159 46.7439 396.081 45.3589C394.004 43.9739 391.753 43.2814 389.329 43.2814C386.329 43.2814 383.501 42.7043 380.846 41.5501C378.307 40.3959 376.056 38.8378 374.094 36.8757C372.132 34.9136 370.574 32.663 369.42 30.1238C368.266 27.4692 367.689 24.6415 367.689 21.6407C367.689 18.6398 368.266 15.8698 369.42 13.3307C370.574 10.6761 372.132 8.36773 374.094 6.40563C376.056 4.44354 378.307 2.88541 380.846 1.73124C383.501 0.577074 386.329 -1.02311e-05 389.329 -1.02311e-05C392.33 -1.02311e-05 395.1 0.577074 397.639 1.73124C400.294 2.88541 402.602 4.44354 404.564 6.40563C406.527 8.36773 408.085 10.6761 409.239 13.3307C410.393 15.8698 410.97 18.6398 410.97 21.6407Z" fill="white"/>
</svg>
