<svg width="622" height="104" viewBox="0 0 622 104" fill="none" xmlns="http://www.w3.org/2000/svg">
<path d="M67.522 1.11328C67.6476 9.98104 67.8356 19.071 67.9927 28.4082L68.0015 28.9111L67.4976 28.916C60.2112 28.9912 52.8936 29.0671 45.6079 29.1572L45.1138 29.1631L45.1021 28.668C44.9488 21.8174 44.7953 15.0528 44.6421 8.41602C41.1471 8.43069 37.652 8.44885 34.1567 8.4668C30.6687 8.48471 27.1803 8.50194 23.6919 8.5166C24.0266 19.6653 24.3321 31.0688 24.6372 42.7129C32.7965 42.5803 40.9864 42.4489 49.2065 42.3311L49.7075 42.3242L49.7144 42.8242C49.7457 45.2253 49.8078 47.6273 49.8706 50.0479L49.8843 50.5537L49.3784 50.5605C41.1932 50.6784 33.0077 50.8113 24.8521 50.958C25.2868 67.7558 25.6921 85.0703 26.1274 102.913L26.1392 103.424L25.6284 103.425C18.4054 103.44 11.182 103.47 3.98975 103.5L3.49951 103.502L3.48779 103.012C2.63984 67.4351 1.66622 33.5118 0.535645 1.22754L0.518066 0.710938L1.03467 0.709961C22.9881 0.679899 44.9733 0.650179 67.021 0.620117L67.5151 0.619141L67.522 1.11328ZM117.208 1.0752C117.208 2.16283 117.215 3.25498 117.223 4.35254C117.231 5.44937 117.239 6.55248 117.239 7.65918V8.15625L116.741 8.15918C114.903 8.1667 113.065 8.17007 111.224 8.17383C109.55 8.17725 107.872 8.18028 106.189 8.18652C106.44 34.5128 106.905 63.2039 107.617 94.2598C111.083 94.2455 114.629 94.232 118.087 94.2178L118.578 94.2158L118.589 94.7061C118.652 97.3215 118.715 99.9675 118.778 102.628L118.79 103.138L118.28 103.14C103.644 103.185 89.0711 103.229 74.5298 103.274L74.0396 103.276L74.0278 102.786C73.965 100.156 73.9022 97.5406 73.8394 94.9404L73.8276 94.4326L74.3354 94.4287C77.8099 94.4 81.2841 94.3845 84.7573 94.3701C84.045 63.4609 83.4863 34.7538 83.1421 8.26367C79.6333 8.26493 76.1239 8.27959 72.6138 8.29395L72.1187 8.2959L72.1118 7.80078C72.0804 5.56128 72.0495 3.3364 72.0181 1.12695L72.0112 0.621094L72.5171 0.620117C87.2154 0.605086 101.945 0.590226 116.707 0.575195L117.208 0.574219V1.0752ZM146.071 0.560547V1.06055C146.04 29.074 146.412 60.0956 147.189 94.1104C154.205 94.0823 161.221 94.0681 168.237 94.0537C168.054 86.3244 167.901 78.767 167.778 71.3535L167.769 70.8447H168.278C171.968 70.8447 175.65 70.8407 179.333 70.8369C183.015 70.8332 186.698 70.8301 190.388 70.8301H190.879L190.888 71.3203C191.077 81.4052 191.296 91.7759 191.547 102.417L191.56 102.928L191.049 102.929C168.907 102.989 146.86 103.049 124.907 103.124L124.417 103.126L124.405 102.636C123.525 65.3722 122.991 31.5191 122.897 1.07715L122.896 0.576172L123.396 0.575195C130.777 0.560163 138.159 0.560547 145.571 0.560547H146.071ZM281.568 0.5L281.56 1.00781C281.089 32.1889 281.34 65.9117 282.314 102.19L282.328 102.702L281.815 102.703C278.078 102.711 274.348 102.722 270.623 102.733C266.897 102.745 263.175 102.756 259.454 102.764L258.965 102.765L258.953 102.276C258.303 77.091 257.958 53.2715 257.971 30.8057C252.698 53.2419 247.785 77.0138 243.205 102.397L243.13 102.809H242.712C240.671 102.809 238.631 102.808 236.591 102.823L236.191 102.826L236.101 102.437C230.222 77.0419 224.645 53.0317 219.377 30.6172C219.417 52.9738 219.762 76.8817 220.411 102.341L220.423 102.852L219.913 102.854C212.5 102.884 205.119 102.899 197.708 102.914L197.218 102.915L197.207 102.426C196.296 65.1753 195.949 31.3803 196.201 1.02637L196.206 0.53125L196.7 0.530273C204.112 0.515241 211.557 0.514648 219 0.514648H219.394L219.486 0.898438C225.644 26.6313 232.249 54.853 239.303 85.2129C245.089 54.8937 251.381 26.9477 258.183 0.874023L258.281 0.5H281.568ZM319.219 0.5C341.707 0.5 364.258 0.499617 386.839 0.514648L387.344 0.515625L387.338 1.02051C387.119 20.2117 387.087 39.4323 387.338 58.667L387.345 59.1855L386.828 59.1738C382.335 59.0742 377.872 58.9746 373.41 58.8877C378.946 73.2205 384.633 87.6062 390.473 101.772L390.756 102.46L390.013 102.463C382.444 102.493 374.905 102.508 367.336 102.523H366.998L366.872 102.209C361.008 87.6109 355.3 72.9392 349.716 58.4453C347.201 58.3923 344.661 58.3502 342.119 58.3096C342.277 72.6609 342.557 87.2328 342.992 102.054L343.007 102.567L342.494 102.568C334.956 102.583 327.449 102.598 319.943 102.613L319.456 102.614L319.442 102.127C318.468 66.6026 318.218 32.8809 318.72 0.992188L318.727 0.5H319.219ZM471.858 0.560547C483.227 0.568062 494.62 0.575567 506.029 0.584961L540.294 0.620117L540.791 0.621094L540.793 1.11719C540.856 12.4797 540.95 23.3308 541.107 33.6699L541.116 34.1934L540.591 34.1768C532.929 33.9363 525.266 33.7108 517.634 33.4854L517.155 33.4717L517.149 32.9922C517.057 25.4799 516.994 17.7511 516.962 9.79199C509.696 9.72016 502.395 9.64801 495.128 9.57617C495.16 22.4485 495.222 34.8344 495.373 46.7207C499.611 46.8586 503.849 47.0006 508.09 47.1455L521.31 47.6074L521.786 47.624L521.792 48.1006C521.824 50.5506 521.855 52.9705 521.886 55.3604L521.893 55.8857L521.369 55.8662C512.75 55.5568 504.131 55.2619 495.512 54.9814C495.729 68.9925 496.035 82.2885 496.431 94.8975C503.762 94.9412 511.12 94.9972 518.451 95.0547C518.239 88.9749 518.055 82.6543 517.903 76.1211L517.89 75.5947L518.417 75.6094L541.47 76.2861L541.942 76.2998L541.956 76.7715C542.207 85.5794 542.458 93.8891 542.772 101.672L542.792 102.191L542.273 102.192C519.153 102.237 496.14 102.267 473.241 102.312L472.756 102.313L472.74 101.83C471.672 71.2947 471.201 37.7085 471.358 1.05762L471.36 0.55957L471.858 0.560547ZM548.272 0.620117C555.904 0.635148 563.535 0.650391 571.198 0.650391H571.693L571.698 1.14453C572.103 39.3305 572.819 70.7924 573.783 95.5449C577.488 95.581 581.2 95.6173 584.912 95.6533C588.607 95.6892 592.303 95.7249 595.992 95.7607C595.779 90.4222 595.566 84.6888 595.353 78.5615L595.333 78.0264L595.87 78.0449C599.748 78.1802 603.627 78.316 607.506 78.4531L619.143 78.8721L619.609 78.8887L619.625 79.3545C619.907 87.619 620.221 95.0272 620.535 101.563L620.56 102.086L620.037 102.087C596.733 102.117 573.491 102.147 550.375 102.192L549.895 102.193L549.875 101.713C548.776 74.845 548.085 41.3047 547.771 1.12402L547.767 0.619141L548.272 0.620117ZM342.107 8.46094C341.956 22.1047 341.927 35.9775 342.046 50.0654C349.221 50.1947 356.424 50.3238 363.627 50.4668C363.508 36.3785 363.537 22.4196 363.658 8.57617C356.462 8.53357 349.333 8.50356 342.107 8.46094ZM445.127 45.6865C445.127 48.1026 445.16 50.5047 445.191 52.9102L445.198 53.4307L444.676 53.417C436.118 53.1813 427.561 52.9452 419.003 52.7236C419.16 66.7924 419.435 80.6893 419.801 94.4004C427.068 94.4435 434.334 94.4862 441.601 94.5293C441.417 87.8285 441.235 81.04 441.113 74.1797L441.103 73.6582L441.625 73.6709C445.428 73.7612 449.234 73.8472 453.044 73.9336L464.489 74.1973L464.967 74.208L464.977 74.6865C465.165 83.9582 465.416 92.9898 465.699 101.812L465.715 102.326L465.201 102.327C442.305 102.372 419.503 102.418 396.796 102.463L396.31 102.464L396.295 101.979C395.259 68.5575 394.945 34.8956 395.353 1.00879L395.359 0.514648H395.853C418.497 0.529679 441.173 0.545516 463.912 0.560547H464.415L464.412 1.06348C464.349 11.4327 464.349 21.5766 464.412 31.5098L464.415 32.0264L463.899 32.0127C456.299 31.8173 448.699 31.637 441.099 31.4717L440.612 31.4609L440.61 30.9736C440.579 23.7535 440.608 16.4618 440.639 9.10059C433.403 9.04311 426.166 8.98619 418.93 8.92871C418.841 20.9166 418.841 32.7763 418.93 44.5078C427.499 44.7291 436.04 44.9514 444.641 45.1875L445.127 45.2002V45.6865Z" fill="#EFE4D0" stroke="black"/>
</svg>
