<svg width="328" height="297" viewBox="0 0 328 297" fill="none" xmlns="http://www.w3.org/2000/svg">
<path d="M96.7621 36.142C97.3969 38.4033 97.7539 40.7043 97.7539 43.1244V52.6062H88.1927V42.2516C88.1927 40.0299 87.7167 37.9272 86.8042 35.9833C85.8917 34.0393 84.6619 32.373 83.1146 30.9052C81.5674 29.4769 79.7821 28.3264 77.7588 27.4933C75.7355 26.6602 73.5535 26.2238 71.2921 26.2238H67.5629L67.5232 52.6062H57.962V26.2238H55.0659V16.7816H57.962V9.56116H52.1301V0L97.0001 0.0396729C97.0001 8.64868 92.5171 16.6626 86.2091 21.3043C87.5977 22.2565 88.8672 23.3673 90.0574 24.5575C91.6443 26.1841 92.9932 27.9297 94.1437 29.8737C95.2942 31.8176 96.167 33.9203 96.7621 36.142ZM67.5629 16.7816H70.8557C75.2991 16.7816 79.5044 15.0757 82.6782 11.9019C83.3923 11.1877 84.0668 10.3943 84.6222 9.56116H67.5629V16.7816ZM110.648 13.1714V52.6062H101.086V22.7325H98.1506V13.1714H110.648ZM137.665 0H147.226V52.6062H132.468C129.968 52.6062 127.548 52.1698 125.287 51.2573C122.986 50.3448 120.963 49.0356 119.217 47.4487C117.471 45.8618 116.083 43.9575 115.051 41.8152C113.98 39.6729 113.504 37.4512 113.464 34.8328V13.1714H129.453C131.952 13.1714 134.253 13.6871 136.435 14.7186C136.832 14.917 137.268 15.155 137.665 15.3931V0ZM132.468 43.045H137.665V31.8176C137.625 30.6274 137.387 29.5563 136.951 28.4851C136.435 27.3346 135.76 26.3428 134.888 25.47C134.055 24.6368 133.063 23.9624 131.912 23.4863C130.762 22.9706 129.532 22.7325 128.223 22.7325H123.026V33.96C123.065 35.1501 123.343 36.2213 123.779 37.2925C124.295 38.443 124.969 39.4348 125.803 40.2679C126.636 41.1407 127.628 41.8152 128.818 42.3309C129.968 42.807 131.158 43.045 132.468 43.045ZM188.486 13.1714V17.2974C188.486 19.7968 187.97 22.0978 186.938 24.2798C185.867 26.4221 184.479 28.3264 182.733 29.9133C180.988 31.5002 178.964 32.8094 176.663 33.7219C174.402 34.6344 171.982 35.0708 169.482 35.0708H164.404C164.523 35.8246 164.722 36.5387 165.039 37.2528C165.515 38.443 166.19 39.4348 167.062 40.2679C167.896 41.1011 168.887 41.7755 170.038 42.3309C171.228 42.807 172.418 43.045 173.727 43.045H185.55V52.6062H173.727C171.228 52.6062 168.808 52.1698 166.547 51.2177C164.246 50.3052 162.222 49.0356 160.477 47.4487C158.731 45.8221 157.343 43.9575 156.271 41.7755C155.28 39.7125 154.764 37.4512 154.724 35.0708H151.788V25.5096H154.724V22.7325H148.853V13.1714H188.486ZM173.172 24.7955C174.323 24.2798 175.314 23.6053 176.147 22.7325H164.285V25.5096H169.482C170.792 25.5096 171.982 25.2716 173.172 24.7955ZM230.38 13.1714V52.6062H220.819V22.7325H217.883V13.1714H230.38ZM247.836 13.1714V22.7325H244.901V52.6062H235.3V22.7325H232.404V13.1714H235.3V0H244.901V13.1714H247.836ZM90.5334 94.1714V103.733H87.5977V133.606H77.9968V103.733H75.1007V94.1714H77.9968V81H87.5977V94.1714H90.5334ZM104.657 94.1714V133.606H95.0958V103.733H92.16V94.1714H104.657ZM104.697 81H117.194V133.606H107.632V90.5612H104.697V81ZM118.661 81H131.158V133.606H121.597V90.5612H118.661V81ZM175.989 94.1714V103.733H173.053V133.606H163.452V103.733H160.556V94.1714H163.452V81H173.053V94.1714H175.989ZM211.377 94.1317V133.606H201.816V103.693H196.619C195.309 103.693 194.119 103.931 192.929 104.407C191.779 104.962 190.787 105.637 189.954 106.47C189.081 107.303 188.406 108.295 187.93 109.485C187.454 110.517 187.216 111.588 187.177 112.778V133.606H177.615V81H187.177V96.5518C187.891 96.155 188.644 95.798 189.438 95.5203C191.699 94.5681 194.119 94.1317 196.619 94.1317H211.377ZM252.637 94.1714V98.2974C252.637 100.797 252.121 103.098 251.089 105.28C250.018 107.422 248.63 109.326 246.884 110.913C245.139 112.5 243.115 113.809 240.814 114.722C238.553 115.634 236.133 116.071 233.633 116.071H228.555C228.674 116.825 228.873 117.539 229.19 118.253C229.666 119.443 230.341 120.435 231.213 121.268C232.047 122.101 233.038 122.776 234.189 123.331C235.379 123.807 236.569 124.045 237.878 124.045H249.701V133.606H237.878C235.379 133.606 232.959 133.17 230.698 132.218C228.397 131.305 226.373 130.036 224.628 128.449C222.882 126.822 221.494 124.958 220.422 122.776C219.431 120.713 218.915 118.451 218.875 116.071H215.939V106.51H218.875V103.733H213.004V94.1714H252.637ZM237.323 105.796C238.474 105.28 239.465 104.605 240.298 103.733H228.436V106.51H233.633C234.943 106.51 236.133 106.272 237.323 105.796ZM41.3391 175.132H50.9003V214.606L38.443 214.567C35.9436 214.567 33.6426 214.051 31.4606 213.019C29.3182 211.988 27.4139 210.599 25.827 208.814L25.4303 208.417C25.3113 208.536 25.1923 208.695 25.0732 208.814C23.4863 210.599 21.582 211.988 19.4397 213.019C17.2577 214.051 14.9567 214.567 12.4573 214.567L0 214.606V175.132H9.56116V205.005H11.2274C12.5366 205.005 13.7268 204.767 14.917 204.252C16.0675 203.776 17.0593 203.101 17.8925 202.268C18.7256 201.435 19.4397 200.403 19.9554 199.253C20.3918 198.182 20.6299 197.071 20.6696 195.881V175.132H30.2307V195.881C30.2704 197.071 30.5084 198.182 30.9448 199.253C31.4606 200.403 32.135 201.435 32.9681 202.268C33.8409 203.101 34.8328 203.776 35.9833 204.252C37.1338 204.767 38.3636 205.005 39.6729 205.005H41.3391V175.132ZM87.8754 175.132V214.606H78.3142V184.693H73.1171C71.8079 184.693 70.6177 184.931 69.4275 185.407C68.277 185.962 67.2852 186.637 66.452 187.47C65.5792 188.303 64.9048 189.295 64.4287 190.485C63.9526 191.517 63.7146 192.588 63.6749 193.778V214.606H54.1138V162H63.6749V177.552C64.389 177.155 65.1428 176.798 65.9363 176.52C68.1976 175.568 70.6177 175.132 73.1171 175.132H87.8754ZM129.135 175.171V179.297C129.135 181.797 128.619 184.098 127.588 186.28C126.517 188.422 125.128 190.326 123.383 191.913C121.637 193.5 119.614 194.809 117.313 195.722C115.051 196.634 112.631 197.071 110.132 197.071H105.054C105.173 197.825 105.371 198.539 105.688 199.253C106.165 200.443 106.839 201.435 107.712 202.268C108.545 203.101 109.537 203.776 110.687 204.331C111.877 204.807 113.068 205.045 114.377 205.045H126.199V214.606H114.377C111.877 214.606 109.457 214.17 107.196 213.218C104.895 212.305 102.872 211.036 101.126 209.449C99.3805 207.822 97.9919 205.958 96.9208 203.776C95.929 201.713 95.4132 199.451 95.3735 197.071H92.4377V187.51H95.3735V184.733H89.502V175.171H129.135ZM113.821 186.796C114.972 186.28 115.964 185.605 116.797 184.733H104.935V187.51H110.132C111.441 187.51 112.631 187.272 113.821 186.796ZM170.395 175.171V179.297C170.395 181.797 169.879 184.098 168.848 186.28C167.776 188.422 166.388 190.326 164.642 191.913C162.897 193.5 160.873 194.809 158.572 195.722C156.311 196.634 153.891 197.071 151.392 197.071H146.313C146.432 197.825 146.631 198.539 146.948 199.253C147.424 200.443 148.099 201.435 148.972 202.268C149.805 203.101 150.797 203.776 151.947 204.331C153.137 204.807 154.327 205.045 155.637 205.045H167.459V214.606H155.637C153.137 214.606 150.717 214.17 148.456 213.218C146.155 212.305 144.131 211.036 142.386 209.449C140.64 207.822 139.252 205.958 138.181 203.776C137.189 201.713 136.673 199.451 136.633 197.071H133.698V187.51H136.633V184.733H130.762V175.171H170.395ZM155.081 186.796C156.232 186.28 157.224 185.605 158.057 184.733H146.194V187.51H151.392C152.701 187.51 153.891 187.272 155.081 186.796ZM170.593 162H183.09V214.606H173.529V171.561H170.593V162ZM218.478 187.51V197.071C218.439 199.451 217.923 201.713 216.931 203.815C215.9 205.958 214.471 207.862 212.726 209.449C211.02 211.036 208.957 212.345 206.696 213.257C204.395 214.17 202.014 214.606 199.475 214.606H184.717V202.109H194.278V205.045H199.475C200.784 205.045 202.014 204.807 203.165 204.331C204.315 203.815 205.307 203.141 206.18 202.268C207.013 201.435 207.687 200.443 208.163 199.292C208.481 198.578 208.679 197.825 208.798 197.071H184.717V192.905C184.717 190.445 185.233 188.105 186.264 185.962C187.335 183.78 188.724 181.916 190.469 180.289C192.215 178.702 194.238 177.433 196.539 176.52C198.801 175.568 201.221 175.132 203.72 175.132H218.478V184.693H203.72C202.411 184.693 201.221 184.931 200.031 185.407C198.444 186.161 198.404 186.359 197.015 187.51H218.478ZM262.872 171.561C262.039 171.561 261.444 171.958 261.127 172.315C260.77 172.632 260.373 173.188 260.373 174.061V175.171H263.309V184.733H260.373V214.606H250.812V184.733H247.876V175.171H250.812V174.061C250.812 167.396 256.207 162 262.872 162C263.864 162 264.816 162.119 265.729 162.357L263.309 171.601C263.19 171.601 263.031 171.561 262.872 171.561ZM301.633 184.733H298.697V214.606H283.939C281.439 214.606 279.019 214.17 276.758 213.257C274.457 212.345 272.433 211.036 270.688 209.449C268.942 207.862 267.554 205.958 266.483 203.815C265.491 201.673 264.935 199.451 264.935 196.833V187.51H289.136V184.733H264.935V175.171H301.633V184.733ZM283.939 205.045H289.136V197.071H274.615C274.734 197.825 274.933 198.578 275.25 199.292C275.726 200.443 276.44 201.435 277.274 202.268C278.107 203.141 279.099 203.815 280.249 204.331C281.439 204.807 282.629 205.045 283.939 205.045ZM301.276 162H313.773V214.606H304.211V171.561H301.276V162ZM315.24 162H327.737V214.606H318.176V171.561H315.24V162ZM140.085 255.061C151.59 255.061 160.913 264.384 160.913 275.889C160.913 287.394 151.59 296.717 140.085 296.717C128.58 296.717 119.257 287.394 119.257 275.889C119.257 264.384 128.58 255.061 140.085 255.061ZM140.085 264.622C137.07 264.622 134.253 265.812 132.111 267.915C130.008 270.057 128.818 272.874 128.818 275.889C128.818 278.904 130.008 281.721 132.111 283.863C134.253 285.966 137.07 287.156 140.085 287.156C143.1 287.156 145.917 285.966 148.059 283.863C150.162 281.721 151.352 278.904 151.352 275.889C151.352 272.874 150.162 270.057 148.059 267.915C145.917 265.812 143.1 264.622 140.085 264.622ZM177.496 252.561C176.663 252.561 176.068 252.958 175.751 253.315C175.394 253.632 174.997 254.188 174.997 255.061V256.171H177.933V265.733H174.997V295.606H165.436V265.733H162.5V256.171H165.436V255.061C165.436 248.396 170.831 243 177.496 243C178.488 243 179.44 243.119 180.353 243.357L177.933 252.601C177.814 252.601 177.655 252.561 177.496 252.561ZM194.556 252.561C193.723 252.561 193.127 252.958 192.81 253.315C192.453 253.632 192.056 254.188 192.056 255.061V256.171H194.992V265.733H192.056V295.606H182.495V265.733H179.559V256.171H182.495V255.061C182.495 248.396 187.891 243 194.556 243C195.547 243 196.5 243.119 197.412 243.357L194.992 252.601C194.873 252.601 194.714 252.561 194.556 252.561ZM207.291 295.606H197.809V286.124H207.291V295.606Z" fill="#333127"/>
</svg>
