<svg width="106" height="19" viewBox="0 0 106 19" fill="none" xmlns="http://www.w3.org/2000/svg">
<path d="M10.075 3.875H6.975C6.975 3.23433 6.90266 2.68666 6.758 2.232C6.61333 1.77733 6.42733 1.55 6.2 1.55C5.97266 1.55 5.78666 1.77733 5.642 2.232C5.49733 2.68666 5.425 3.23433 5.425 3.875C5.425 4.51566 5.49733 5.06333 5.642 5.518C5.78666 5.97266 5.97266 6.2 6.2 6.2C7.04733 6.2 7.843 6.36533 8.587 6.696C9.35166 7.02666 10.013 7.471 10.571 8.029C11.129 8.587 11.5733 9.24833 11.904 10.013C12.2347 10.757 12.4 11.5527 12.4 12.4C12.4 13.2473 12.2347 14.0533 11.904 14.818C11.5733 15.562 11.129 16.213 10.571 16.771C10.013 17.329 9.35166 17.7733 8.587 18.104C7.843 18.4347 7.04733 18.6 6.2 18.6C5.35266 18.6 4.54666 18.4347 3.782 18.104C3.038 17.7733 2.387 17.329 1.829 16.771C1.271 16.213 0.826663 15.562 0.495996 14.818C0.16533 14.0533 -3.8147e-06 13.2473 -3.8147e-06 12.4H3.1C3.1 13.0407 3.18266 13.6503 3.348 14.229C3.51333 14.787 3.73033 15.2727 3.999 15.686C4.28833 16.0993 4.619 16.43 4.991 16.678C5.363 16.926 5.766 17.05 6.2 17.05C6.634 17.05 7.037 16.926 7.409 16.678C7.781 16.43 8.10133 16.0993 8.37 15.686C8.65933 15.2727 8.88666 14.787 9.052 14.229C9.21733 13.6503 9.3 13.0407 9.3 12.4C9.3 11.7593 9.21733 11.16 9.052 10.602C8.88666 10.0233 8.65933 9.52733 8.37 9.114C8.10133 8.70066 7.781 8.37 7.409 8.122C7.037 7.874 6.634 7.75 6.2 7.75C5.66266 7.75 5.15633 7.64666 4.681 7.44C4.22633 7.23333 3.82333 6.95433 3.472 6.603C3.12066 6.25166 2.84166 5.84866 2.635 5.394C2.42833 4.91866 2.325 4.41233 2.325 3.875C2.325 3.33766 2.42833 2.84166 2.635 2.387C2.84166 1.91166 3.12066 1.49833 3.472 1.147C3.82333 0.795663 4.22633 0.516663 4.681 0.309996C5.15633 0.10333 5.66266 -3.40939e-06 6.2 -3.40939e-06C6.73733 -3.40939e-06 7.23333 0.10333 7.688 0.309996C8.16333 0.516663 8.57666 0.795663 8.928 1.147C9.27933 1.49833 9.55833 1.91166 9.765 2.387C9.97166 2.84166 10.075 3.33766 10.075 3.875ZM13.9561 -3.40939e-06H26.3561V1.55H21.7061V18.6H18.6061V1.55H13.9561V-3.40939e-06ZM31.0121 10.85C31.4461 10.85 31.8491 10.726 32.2211 10.478C32.5931 10.23 32.9134 9.89933 33.1821 9.486C33.4714 9.07266 33.6988 8.587 33.8641 8.029C34.0294 7.45033 34.1121 6.84066 34.1121 6.2C34.1121 5.55933 34.0294 4.96 33.8641 4.402C33.6988 3.82333 33.4714 3.32733 33.1821 2.914C32.9134 2.50066 32.5931 2.17 32.2211 1.922C31.8491 1.674 31.4461 1.55 31.0121 1.55V10.85ZM37.2121 6.2C37.2121 7.52266 36.8401 8.70066 36.0961 9.734C35.3521 10.7673 34.4014 11.5217 33.2441 11.997L37.2121 18.6H35.6621L31.9111 12.338C31.7458 12.3587 31.5908 12.3793 31.4461 12.4C31.3221 12.4 31.1774 12.4 31.0121 12.4V18.6H27.9121V-3.40939e-06H31.0121C31.8594 -3.40939e-06 32.6551 0.16533 33.3991 0.495996C34.1638 0.826663 34.8251 1.271 35.3831 1.829C35.9411 2.387 36.3854 3.04833 36.7161 3.813C37.0468 4.557 37.2121 5.35266 37.2121 6.2ZM38.75 -3.40939e-06H48.05V1.55H41.85V7.75H44.95V9.3H41.85V17.05H48.05V18.6H38.75V-3.40939e-06ZM49.5879 -3.40939e-06H58.8879V1.55H52.6879V7.75H55.7879V9.3H52.6879V17.05H58.8879V18.6H49.5879V-3.40939e-06ZM60.4258 -3.40939e-06H72.8258V1.55H68.1758V18.6H65.0758V1.55H60.4258V-3.40939e-06ZM88.3379 -3.40939e-06H91.4379V18.6H88.3379V-3.40939e-06ZM99.2 10.85C99.634 10.85 100.037 10.726 100.409 10.478C100.781 10.23 101.101 9.89933 101.37 9.486C101.659 9.07266 101.887 8.587 102.052 8.029C102.217 7.45033 102.3 6.84066 102.3 6.2C102.3 5.55933 102.217 4.96 102.052 4.402C101.887 3.82333 101.659 3.32733 101.37 2.914C101.101 2.50066 100.781 2.17 100.409 1.922C100.037 1.674 99.634 1.55 99.2 1.55C98.766 1.55 98.363 1.674 97.991 1.922C97.619 2.17 97.2883 2.50066 96.999 2.914C96.7303 3.32733 96.5133 3.82333 96.348 4.402C96.1827 4.96 96.1 5.55933 96.1 6.2C96.1 6.84066 96.1827 7.45033 96.348 8.029C96.5133 8.587 96.7303 9.07266 96.999 9.486C97.2883 9.89933 97.619 10.23 97.991 10.478C98.363 10.726 98.766 10.85 99.2 10.85ZM105.4 12.4C105.4 13.2473 105.235 14.0533 104.904 14.818C104.573 15.562 104.129 16.213 103.571 16.771C103.013 17.329 102.352 17.7733 101.587 18.104C100.843 18.4347 100.047 18.6 99.2 18.6C98.4767 18.6 97.7843 18.4863 97.123 18.259C96.4823 18.011 95.8933 17.6803 95.356 17.267C94.8393 16.8537 94.3847 16.368 93.992 15.81C93.62 15.2313 93.3513 14.6113 93.186 13.95H96.286C96.5133 14.8593 96.8853 15.6033 97.402 16.182C97.9187 16.7607 98.518 17.05 99.2 17.05C99.634 17.05 100.037 16.926 100.409 16.678C100.781 16.43 101.101 16.0993 101.37 15.686C101.659 15.2727 101.887 14.787 102.052 14.229C102.217 13.6503 102.3 13.0407 102.3 12.4V11.563C101.845 11.8317 101.349 12.0383 100.812 12.183C100.295 12.3277 99.758 12.4 99.2 12.4C98.3527 12.4 97.5467 12.2347 96.782 11.904C96.038 11.5733 95.387 11.129 94.829 10.571C94.271 10.013 93.8267 9.362 93.496 8.618C93.1653 7.85333 93 7.04733 93 6.2C93 5.35266 93.1653 4.557 93.496 3.813C93.8267 3.04833 94.271 2.387 94.829 1.829C95.387 1.271 96.038 0.826663 96.782 0.495996C97.5467 0.16533 98.3527 -3.40939e-06 99.2 -3.40939e-06C100.047 -3.40939e-06 100.843 0.16533 101.587 0.495996C102.352 0.826663 103.013 1.271 103.571 1.829C104.129 2.387 104.573 3.04833 104.904 3.813C105.235 4.557 105.4 5.35266 105.4 6.2V12.4Z" fill="#333127"/>
</svg>
