<svg width="10" height="10" viewBox="0 0 10 10" fill="none" xmlns="http://www.w3.org/2000/svg">
<mask id="path-1-inside-1_74_2716" fill="white">
<path d="M4.1379 9.23077C4.1379 9.38291 4.09746 9.53163 4.02168 9.65813C3.9459 9.78463 3.83819 9.88322 3.71217 9.94145C3.58615 9.99967 3.44749 10.0149 3.31371 9.98522C3.17993 9.95554 3.05705 9.88228 2.9606 9.7747C2.86415 9.66712 2.79846 9.53005 2.77185 9.38084C2.74524 9.23162 2.7589 9.07695 2.8111 8.9364C2.8633 8.79584 2.95169 8.6757 3.0651 8.59118C3.17852 8.50665 3.31185 8.46154 3.44825 8.46154C3.63116 8.46154 3.80657 8.54258 3.93591 8.68684C4.06524 8.8311 4.1379 9.02676 4.1379 9.23077ZM7.93098 8.46154C7.79458 8.46154 7.66124 8.50665 7.54783 8.59118C7.43442 8.6757 7.34603 8.79584 7.29383 8.9364C7.24163 9.07695 7.22797 9.23162 7.25458 9.38084C7.28119 9.53005 7.34688 9.66712 7.44333 9.7747C7.53977 9.88228 7.66266 9.95554 7.79644 9.98522C7.93022 10.0149 8.06888 9.99967 8.1949 9.94145C8.32092 9.88322 8.42863 9.78463 8.50441 9.65813C8.58018 9.53163 8.62063 9.38291 8.62063 9.23077C8.62063 9.02676 8.54797 8.8311 8.41864 8.68684C8.2893 8.54258 8.11389 8.46154 7.93098 8.46154ZM9.98743 2.41058L8.88227 6.84712C8.82151 7.08947 8.69154 7.30311 8.51209 7.45563C8.33264 7.60816 8.11349 7.69125 7.88788 7.69231H3.62756C3.40128 7.69219 3.18125 7.60953 3.00101 7.45694C2.82078 7.30434 2.69024 7.09018 2.62929 6.84712L1.11723 0.769231H0.344825C0.253372 0.769231 0.165664 0.728709 0.100997 0.656579C0.0363297 0.58445 0 0.486622 0 0.384615C0 0.282609 0.0363297 0.184781 0.100997 0.112651C0.165664 0.0405219 0.253372 7.10404e-09 0.344825 7.10404e-09H1.3793C1.45469 -1.6149e-05 1.528 0.0275248 1.58802 0.0784068C1.64804 0.129289 1.69146 0.200708 1.71163 0.281731L2.12024 1.92308H9.65511C9.70827 1.92307 9.76071 1.93676 9.80834 1.9631C9.85597 1.98944 9.89749 2.0277 9.92966 2.0749C9.96184 2.1221 9.9838 2.17696 9.99382 2.23519C10.0038 2.29342 10.0017 2.35344 9.98743 2.41058ZM9.20123 2.69231H2.31205L3.29524 6.64135C3.3154 6.72237 3.35882 6.79379 3.41884 6.84467C3.47886 6.89555 3.55217 6.92309 3.62756 6.92308H7.88788C7.96327 6.92309 8.03658 6.89555 8.0966 6.84467C8.15662 6.79379 8.20004 6.72237 8.2202 6.64135L9.20123 2.69231Z"/>
</mask>
<path d="M4.1379 9.23077C4.1379 9.38291 4.09746 9.53163 4.02168 9.65813C3.9459 9.78463 3.83819 9.88322 3.71217 9.94145C3.58615 9.99967 3.44749 10.0149 3.31371 9.98522C3.17993 9.95554 3.05705 9.88228 2.9606 9.7747C2.86415 9.66712 2.79846 9.53005 2.77185 9.38084C2.74524 9.23162 2.7589 9.07695 2.8111 8.9364C2.8633 8.79584 2.95169 8.6757 3.0651 8.59118C3.17852 8.50665 3.31185 8.46154 3.44825 8.46154C3.63116 8.46154 3.80657 8.54258 3.93591 8.68684C4.06524 8.8311 4.1379 9.02676 4.1379 9.23077ZM7.93098 8.46154C7.79458 8.46154 7.66124 8.50665 7.54783 8.59118C7.43442 8.6757 7.34603 8.79584 7.29383 8.9364C7.24163 9.07695 7.22797 9.23162 7.25458 9.38084C7.28119 9.53005 7.34688 9.66712 7.44333 9.7747C7.53977 9.88228 7.66266 9.95554 7.79644 9.98522C7.93022 10.0149 8.06888 9.99967 8.1949 9.94145C8.32092 9.88322 8.42863 9.78463 8.50441 9.65813C8.58018 9.53163 8.62063 9.38291 8.62063 9.23077C8.62063 9.02676 8.54797 8.8311 8.41864 8.68684C8.2893 8.54258 8.11389 8.46154 7.93098 8.46154ZM9.98743 2.41058L8.88227 6.84712C8.82151 7.08947 8.69154 7.30311 8.51209 7.45563C8.33264 7.60816 8.11349 7.69125 7.88788 7.69231H3.62756C3.40128 7.69219 3.18125 7.60953 3.00101 7.45694C2.82078 7.30434 2.69024 7.09018 2.62929 6.84712L1.11723 0.769231H0.344825C0.253372 0.769231 0.165664 0.728709 0.100997 0.656579C0.0363297 0.58445 0 0.486622 0 0.384615C0 0.282609 0.0363297 0.184781 0.100997 0.112651C0.165664 0.0405219 0.253372 7.10404e-09 0.344825 7.10404e-09H1.3793C1.45469 -1.6149e-05 1.528 0.0275248 1.58802 0.0784068C1.64804 0.129289 1.69146 0.200708 1.71163 0.281731L2.12024 1.92308H9.65511C9.70827 1.92307 9.76071 1.93676 9.80834 1.9631C9.85597 1.98944 9.89749 2.0277 9.92966 2.0749C9.96184 2.1221 9.9838 2.17696 9.99382 2.23519C10.0038 2.29342 10.0017 2.35344 9.98743 2.41058ZM9.20123 2.69231H2.31205L3.29524 6.64135C3.3154 6.72237 3.35882 6.79379 3.41884 6.84467C3.47886 6.89555 3.55217 6.92309 3.62756 6.92308H7.88788C7.96327 6.92309 8.03658 6.89555 8.0966 6.84467C8.15662 6.79379 8.20004 6.72237 8.2202 6.64135L9.20123 2.69231Z" fill="#333127"/>
<path d="M4.02168 9.65813L5.30845 10.429L4.02168 9.65813ZM9.98743 2.41058L11.443 2.77315L11.443 2.77287L9.98743 2.41058ZM8.88227 6.84712L10.3372 7.2119L10.3378 7.20969L8.88227 6.84712ZM7.88788 7.69231V9.19232L7.8949 9.19229L7.88788 7.69231ZM3.62756 7.69231L3.6268 9.19231H3.62756V7.69231ZM2.62929 6.84712L1.17366 7.20925L1.17433 7.21192L2.62929 6.84712ZM1.11723 0.769231L2.57286 0.407098L2.28979 -0.730769H1.11723V0.769231ZM0 0.384615H-1.5H0ZM0.344825 7.10404e-09V-1.5V7.10404e-09ZM1.3793 7.10404e-09V1.5H1.37962L1.3793 7.10404e-09ZM1.71163 0.281731L0.256036 0.644022L0.256055 0.6441L1.71163 0.281731ZM2.12024 1.92308L0.664673 2.28545L0.94789 3.42308H2.12024V1.92308ZM9.65511 1.92308V3.42308H9.65543L9.65511 1.92308ZM9.20123 2.69231L10.657 3.05395L11.1195 1.19231H9.20123V2.69231ZM2.31205 2.69231V1.19231H0.392812L0.856487 3.0547L2.31205 2.69231ZM3.29524 6.64135L4.75083 6.27905L4.7508 6.27896L3.29524 6.64135ZM3.62756 6.92308V5.42308H3.62724L3.62756 6.92308ZM7.88788 6.92308L7.8882 5.42308H7.88788V6.92308ZM8.2202 6.64135L9.6758 7.00364L9.67596 7.00299L8.2202 6.64135ZM4.1379 9.23077H2.6379C2.6379 9.12043 2.66658 9.00133 2.7349 8.88728L4.02168 9.65813L5.30845 10.429C5.52833 10.0619 5.6379 9.64539 5.6379 9.23077H4.1379ZM4.02168 9.65813L2.7349 8.88728C2.80384 8.77221 2.91805 8.65598 3.08305 8.57975L3.71217 9.94145L4.34129 11.3031C4.75833 11.1105 5.08796 10.7971 5.30845 10.429L4.02168 9.65813ZM3.71217 9.94145L3.08305 8.57975C3.25102 8.50215 3.44723 8.47837 3.63861 8.52083L3.31371 9.98522L2.98881 11.4496C3.44775 11.5514 3.92129 11.4972 4.34129 11.3031L3.71217 9.94145ZM3.31371 9.98522L3.63861 8.52083C3.8279 8.56283 3.97684 8.66116 4.07745 8.77338L2.9606 9.7747L1.84374 10.776C2.13725 11.1034 2.53196 11.3482 2.98881 11.4496L3.31371 9.98522ZM2.9606 9.7747L4.07745 8.77338C4.17659 8.88396 4.2287 9.00615 4.24856 9.11749L2.77185 9.38084L1.29515 9.64418C1.36823 10.054 1.55171 10.4503 1.84374 10.776L2.9606 9.7747ZM2.77185 9.38084L4.24856 9.11749C4.26839 9.22871 4.25929 9.34542 4.21727 9.45859L2.8111 8.9364L1.40493 8.4142C1.25851 8.80849 1.2221 9.23454 1.29515 9.64418L2.77185 9.38084ZM2.8111 8.9364L4.21727 9.45859C4.17507 9.57222 4.09427 9.69492 3.96147 9.7939L3.0651 8.59118L2.16874 7.38846C1.80912 7.65648 1.55152 8.01946 1.40493 8.4142L2.8111 8.9364ZM3.0651 8.59118L3.96147 9.7939C3.82616 9.89474 3.64743 9.96154 3.44825 9.96154V8.46154V6.96154C2.97628 6.96154 2.53087 7.11857 2.16874 7.38846L3.0651 8.59118ZM3.44825 8.46154V9.96154C3.17719 9.96154 2.95518 9.83999 2.81905 9.68815L3.93591 8.68684L5.05277 7.68553C4.65797 7.24517 4.08513 6.96154 3.44825 6.96154V8.46154ZM3.93591 8.68684L2.81905 9.68815C2.68775 9.5417 2.6379 9.37491 2.6379 9.23077H4.1379H5.6379C5.6379 8.6786 5.44274 8.1205 5.05277 7.68553L3.93591 8.68684ZM7.93098 8.46154V6.96154C7.45901 6.96154 7.0136 7.11857 6.65147 7.38846L7.54783 8.59118L8.4442 9.7939C8.30889 9.89474 8.13016 9.96154 7.93098 9.96154V8.46154ZM7.54783 8.59118L6.65147 7.38846C6.29184 7.65648 6.03425 8.01946 5.88766 8.4142L7.29383 8.9364L8.7 9.45859C8.6578 9.57221 8.57699 9.69492 8.4442 9.7939L7.54783 8.59118ZM7.29383 8.9364L5.88766 8.4142C5.74124 8.80849 5.70483 9.23454 5.77788 9.64418L7.25458 9.38084L8.73128 9.11749C8.75112 9.22871 8.74202 9.34542 8.7 9.45859L7.29383 8.9364ZM7.25458 9.38084L5.77788 9.64418C5.85096 10.054 6.03443 10.4503 6.32647 10.776L7.44333 9.7747L8.56018 8.77338C8.65932 8.88396 8.71143 9.00615 8.73128 9.11749L7.25458 9.38084ZM7.44333 9.7747L6.32647 10.776C6.61998 11.1034 7.01468 11.3482 7.47154 11.4496L7.79644 9.98522L8.12134 8.52083C8.31063 8.56283 8.45957 8.66116 8.56018 8.77338L7.44333 9.7747ZM7.79644 9.98522L7.47154 11.4496C7.93048 11.5514 8.40401 11.4972 8.82402 11.3031L8.1949 9.94145L7.56578 8.57975C7.73375 8.50215 7.92996 8.47837 8.12134 8.52083L7.79644 9.98522ZM8.1949 9.94145L8.82402 11.3031C9.24106 11.1105 9.57069 10.7971 9.79118 10.429L8.50441 9.65813L7.21763 8.88728C7.28657 8.77221 7.40078 8.65599 7.56578 8.57975L8.1949 9.94145ZM8.50441 9.65813L9.79118 10.429C10.0111 10.0619 10.1206 9.64539 10.1206 9.23077H8.62063H7.12063C7.12063 9.12043 7.14931 9.00133 7.21763 8.88728L8.50441 9.65813ZM8.62063 9.23077H10.1206C10.1206 8.6786 9.92547 8.1205 9.5355 7.68553L8.41864 8.68684L7.30178 9.68815C7.17048 9.5417 7.12063 9.37491 7.12063 9.23077H8.62063ZM8.41864 8.68684L9.5355 7.68553C9.14069 7.24517 8.56786 6.96154 7.93098 6.96154V8.46154V9.96154C7.65992 9.96154 7.43791 9.83999 7.30178 9.68815L8.41864 8.68684ZM9.98743 2.41058L8.53191 2.048L7.42675 6.48454L8.88227 6.84712L10.3378 7.20969L11.443 2.77315L9.98743 2.41058ZM8.88227 6.84712L7.4273 6.48233C7.43771 6.44081 7.46678 6.37548 7.54065 6.3127L8.51209 7.45563L9.48354 8.59856C9.91631 8.23073 10.2053 7.73813 10.3372 7.2119L8.88227 6.84712ZM8.51209 7.45563L7.54065 6.3127C7.61771 6.2472 7.73647 6.193 7.88085 6.19232L7.88788 7.69231L7.8949 9.19229C8.49052 9.1895 9.04757 8.96912 9.48354 8.59856L8.51209 7.45563ZM7.88788 7.69231V6.19231H3.62756V7.69231V9.19231H7.88788V7.69231ZM3.62756 7.69231L3.62832 6.19231C3.7732 6.19238 3.89267 6.24644 3.97026 6.31214L3.00101 7.45694L2.03176 8.60173C2.46983 8.97262 3.02937 9.192 3.6268 9.19231L3.62756 7.69231ZM3.00101 7.45694L3.97026 6.31214C4.04461 6.37509 4.07382 6.44069 4.08426 6.48231L2.62929 6.84712L1.17433 7.21192C1.30665 7.73966 1.59695 8.23359 2.03176 8.60173L3.00101 7.45694ZM2.62929 6.84712L4.08492 6.48498L2.57286 0.407098L1.11723 0.769231L-0.338397 1.13136L1.17366 7.20925L2.62929 6.84712ZM1.11723 0.769231V-0.730769H0.344825V0.769231V2.26923H1.11723V0.769231ZM0.344825 0.769231V-0.730769C0.707342 -0.730769 1.01706 -0.568704 1.21785 -0.344734L0.100997 0.656579L-1.01586 1.65789C-0.685727 2.02612 -0.200598 2.26923 0.344825 2.26923V0.769231ZM0.100997 0.656579L1.21785 -0.344734C1.41383 -0.126148 1.5 0.138466 1.5 0.384615H0H-1.5C-1.5 0.834777 -1.34117 1.29505 -1.01586 1.65789L0.100997 0.656579ZM0 0.384615H1.5C1.5 0.630764 1.41383 0.895379 1.21785 1.11397L0.100997 0.112651L-1.01586 -0.888663C-1.34117 -0.525817 -1.5 -0.0655463 -1.5 0.384615H0ZM0.100997 0.112651L1.21785 1.11397C1.01705 1.33794 0.707341 1.5 0.344825 1.5V7.10404e-09V-1.5C-0.200597 -1.5 -0.685726 -1.25689 -1.01586 -0.888663L0.100997 0.112651ZM0.344825 7.10404e-09V1.5H1.3793V7.10404e-09V-1.5H0.344825V7.10404e-09ZM1.3793 7.10404e-09L1.37962 1.5C1.08309 1.50006 0.816199 1.39057 0.618043 1.22258L1.58802 0.0784068L2.55801 -1.06577C2.23981 -1.33552 1.82629 -1.5001 1.37898 -1.5L1.3793 7.10404e-09ZM1.58802 0.0784068L0.618043 1.22258C0.42316 1.05737 0.306878 0.848294 0.256036 0.644022L1.71163 0.281731L3.16722 -0.0805604C3.07604 -0.446878 2.87293 -0.798791 2.55801 -1.06577L1.58802 0.0784068ZM1.71163 0.281731L0.256055 0.6441L0.664673 2.28545L2.12024 1.92308L3.57582 1.56071L3.1672 -0.0806381L1.71163 0.281731ZM2.12024 1.92308V3.42308H9.65511V1.92308V0.423077H2.12024V1.92308ZM9.65511 1.92308L9.65543 3.42308C9.44834 3.42312 9.25162 3.36931 9.08247 3.27577L9.80834 1.9631L10.5342 0.650427C10.2698 0.504217 9.9682 0.42301 9.65479 0.423077L9.65511 1.92308ZM9.80834 1.9631L9.08247 3.27577C8.91444 3.18286 8.78355 3.05666 8.69025 2.9198L9.92966 2.0749L11.1691 1.23C11.0114 0.998738 10.7975 0.796016 10.5342 0.650427L9.80834 1.9631ZM9.92966 2.0749L8.69025 2.9198C8.59726 2.78338 8.54067 2.63556 8.51555 2.48959L9.99382 2.23519L11.4721 1.98078C11.4269 1.71836 11.3264 1.46082 11.1691 1.23L9.92966 2.0749ZM9.99382 2.23519L8.51555 2.48959C8.49044 2.34366 8.49566 2.19367 8.53184 2.04829L9.98743 2.41058L11.443 2.77287C11.5077 2.51322 11.5172 2.24317 11.4721 1.98078L9.99382 2.23519ZM9.20123 2.69231V1.19231H2.31205V2.69231V4.19231H9.20123V2.69231ZM2.31205 2.69231L0.856487 3.0547L1.83967 7.00373L3.29524 6.64135L4.7508 6.27896L3.76762 2.32992L2.31205 2.69231ZM3.29524 6.64135L1.83965 7.00364C1.93082 7.36996 2.13394 7.72187 2.44886 7.98884L3.41884 6.84467L4.38882 5.70049C4.5837 5.86571 4.69998 6.07478 4.75083 6.27905L3.29524 6.64135ZM3.41884 6.84467L2.44886 7.98884C2.76705 8.2586 3.18058 8.42317 3.62788 8.42308L3.62756 6.92308L3.62724 5.42308C3.92377 5.42301 4.19066 5.53251 4.38882 5.70049L3.41884 6.84467ZM3.62756 6.92308V8.42308H7.88788V6.92308V5.42308H3.62756V6.92308ZM7.88788 6.92308L7.88756 8.42308C8.33487 8.42317 8.74839 8.2586 9.06658 7.98884L8.0966 6.84467L7.12662 5.70049C7.32478 5.53251 7.59167 5.42301 7.8882 5.42308L7.88788 6.92308ZM8.0966 6.84467L9.06658 7.98884C9.3815 7.72187 9.58462 7.36996 9.6758 7.00364L8.2202 6.64135L6.76461 6.27905C6.81546 6.07478 6.93174 5.86571 7.12662 5.70049L8.0966 6.84467ZM8.2202 6.64135L9.67596 7.00299L10.657 3.05395L9.20123 2.69231L7.74548 2.33067L6.76445 6.27971L8.2202 6.64135Z" fill="#333127" mask="url(#path-1-inside-1_74_2716)"/>
</svg>
