<svg width="876" height="497" viewBox="0 0 876 497" fill="none" xmlns="http://www.w3.org/2000/svg">
<mask id="path-1-outside-1_34_91" maskUnits="userSpaceOnUse" x="0" y="0" width="876" height="498" fill="black">
<rect fill="white" width="876" height="498"/>
<path d="M173.988 26.6946C183.019 29.459 188.256 31.2233 189.717 31.9676C190.907 32.5307 191.518 33.7554 191.55 35.6536C191.589 37.9337 190.701 40.5091 188.883 43.3839C182.535 53.7724 177.948 76.2742 175.115 112.61C173.265 137.609 172.424 155.633 172.599 165.943C172.67 170.487 172.543 172.976 172.21 173.394C172.051 173.602 170.408 173.295 167.29 172.48C163.83 171.46 160.155 170.231 156.267 168.802C154.497 168.188 152.473 167.577 150.188 166.967C149.307 166.66 148.418 166.356 147.529 166.049C147.148 165.845 146.767 165.64 146.386 165.435C146.006 165.333 145.625 165.23 145.252 165.132C142.125 164.112 140.474 163.604 140.308 163.604C139.72 163.623 139.816 154.377 140.585 136.321C141.347 118.084 142.284 103.281 143.41 91.6522C143.791 87.218 144.164 82.8035 144.545 78.4087C143.664 78.9048 142.791 79.3971 141.919 79.8933C138.831 81.4724 134.649 83.0634 129.372 84.6622C123.84 86.2611 119.865 87.0684 117.42 87.0841C113.714 87.1077 112.032 87.3125 112.381 87.7063C112.468 88.0962 114.175 88.872 117.484 90.0297C121.468 91.3844 123.761 92.4556 124.364 93.2392C124.967 94.0229 125.61 96.5787 126.285 100.934C127.777 112.571 130.634 149.36 134.657 217.007C141.799 334.884 145.275 421.954 145.49 462.228C145.625 482.19 144.966 492.247 143.522 491.995C143.093 491.511 138.062 489.353 128.435 485.533C118.547 481.469 113.476 479.201 113.222 478.716C112.619 478.535 112.143 460.03 111.722 424.521C111.397 390.245 110.603 360.788 109.381 335.652C107.937 306.936 105.58 262.759 102.136 206.327C98.7153 151.77 96.7314 124.665 96.4219 121.124C96.2076 119.12 96.0013 117.119 95.787 115.123C91.7238 113.745 87.6606 112.37 83.5974 111C80.6373 110.019 77.7566 109.043 74.9631 108.066C72.5823 107.085 71.3126 106.499 71.138 106.298C70.6857 104.919 72.0665 99.036 75.2806 88.8129C76.0742 86.4501 76.7328 84.1975 77.2725 82.0474C77.8201 80.2871 78.0502 79.3105 77.9629 79.1136C77.8756 78.9206 75.9154 77.9558 72.0824 76.2309C70.638 75.6599 68.7652 74.7975 66.4637 73.6476C64.4163 72.4937 62.5355 71.3478 60.8213 70.1939C60.0991 69.812 59.369 69.43 58.6469 69.048C58.3453 68.8589 58.0437 68.666 57.7501 68.477C57.4485 68.284 57.147 68.091 56.8454 67.902C55.7344 67.1341 55.1392 66.7561 55.0519 66.7561C54.544 66.7757 53.0441 75.207 50.5125 92.4989C47.9016 109.814 46.1081 123.672 45.1479 133.769C40.9577 177.844 41.9814 211.667 48.4254 233.051C50.2745 239.265 52.1791 243.467 54.1472 245.613C56.0994 247.551 60.4166 249.799 67.0907 252.375C76.963 256.234 83.3593 259.798 86.2559 263.059C89.7636 267.406 93.1919 275.357 96.533 287.049C99.8819 298.965 102.453 312.43 104.231 327.536C105.262 335.884 105.889 350.12 106.112 370.626C106.326 390.213 105.834 405.461 104.667 416.062C101.787 442.943 97.3821 460.724 91.4857 468.71C88.3669 472.841 79.7326 471.927 65.5829 465.997C53.4726 461.019 45.624 454.336 42.029 445.991C40.7434 442.896 39.9736 441.349 39.7197 441.352C39.553 441.352 39.0927 444.57 38.3468 451.048C37.5056 457.762 37.0056 461.385 36.831 461.866C36.6643 462.594 32.1488 461.421 23.2844 458.361C14.4993 455.297 8.87273 453.06 6.40466 451.639C5.46822 450.926 5 449.13 5 446.259C5.0873 443.388 5.65075 436.918 6.65861 426.951C7.75377 416.519 9.26953 397.566 11.1027 370.775C12.8486 344.918 14.1184 323.365 14.9755 305.727C15.2532 298.583 15.5627 291.818 15.9198 285.415C16.2055 279.897 16.3801 277.046 16.4595 276.822C16.6261 276.164 21.7289 277.783 31.7837 281.701C42.3385 285.403 47.6556 287.258 47.7429 287.258C48.4095 287.262 48.6476 292.976 48.4333 304.569C48.3698 310.366 48.3063 316.19 48.2349 322.042C49.4094 330.363 50.576 338.735 51.7505 347.163C53.9091 363.112 55.909 376.733 57.766 387.886C59.0913 396.018 60.8372 405.127 63.0196 415.243C65.2892 425.364 66.6304 430.476 67.051 430.468C67.5589 430.468 68.5509 425.939 70.019 416.968C71.3999 408.474 72.4078 400.976 73.0268 394.439C73.8124 385.807 74.0902 373.843 73.868 358.713C73.6378 343.359 73.003 331.269 71.9872 322.271C70.5825 309.448 68.4239 297.209 65.5035 285.521C62.591 274.061 59.8055 266.662 57.1549 263.181C56.1312 261.877 51.814 259.605 44.2114 256.38C32.7281 252.083 25.1811 246.921 21.5781 240.907C15.9913 231.901 12.3645 214.916 10.6186 190.662C8.11882 157.039 11.8963 111.504 21.7051 57.1867C25.2049 38.2211 27.5063 29.8489 28.657 31.5068C28.9189 31.6919 29.5141 31.8731 30.4426 32.0542C31.5457 32.2314 32.6488 32.3181 33.7439 32.3102C36.6882 32.0975 42.9337 33.4561 52.4648 36.4018C61.8292 39.3474 67.0272 41.4936 68.0747 42.8129C68.5192 43.38 68.9159 44.14 69.281 45.0851C69.6381 46.0342 69.9159 46.8887 70.1063 47.6527C70.3127 49.1767 72.0348 52.1184 75.2647 56.5054C78.574 60.8963 81.5658 64.2554 84.2323 66.5552C86.7242 68.662 89.6525 69.4221 93.0094 68.8196C102.16 67.2129 113.492 61.8965 127.062 52.9808C140.72 44.0691 150.442 35.5433 156.211 27.3916C157.449 25.6864 158.687 23.9813 159.925 22.284C164.615 23.7489 169.297 25.2217 173.988 26.6946ZM173.194 202.882C173.861 213.223 174.369 219.201 174.726 220.685C175.178 222.816 175.424 224.95 175.456 227.089C175.495 229.444 174.591 230.519 172.742 230.31C170.726 230.101 165.456 228.408 156.933 225.234C152.338 223.54 147.736 221.851 143.141 220.166C142.807 218.035 142.482 215.913 142.157 213.79C141.879 212.097 141.617 209.127 141.387 204.902C141.054 200.259 140.815 195.844 140.665 191.654C140.403 186.314 140.149 180.998 139.887 175.705C140.522 176.013 141.157 176.324 141.792 176.631C142.212 176.839 144.029 177.556 147.244 178.793C148.005 179.1 148.767 179.411 149.529 179.718C150.41 180.025 151.299 180.336 152.188 180.644C154.553 181.467 156.402 182.085 157.759 182.494C167.298 185.795 172.107 187.555 172.194 187.764C172.305 189.331 172.408 190.902 172.519 192.473C172.638 194.36 172.742 195.939 172.845 197.195C172.964 199.089 173.075 200.983 173.194 202.882ZM309.795 426.837C309.803 427.309 308.248 426.963 305.129 425.789C301.843 424.86 298.098 423.572 293.876 421.938C288.519 419.835 283.162 417.736 277.797 415.641C277.639 413.877 277.488 412.117 277.329 410.36C274.718 381.305 273.155 350.825 272.655 319.175C272.179 294.496 272.33 278.732 273.052 271.269C274.266 257.246 276.282 245.885 279.099 237.052C279.773 234.791 280.456 232.535 281.138 230.282C280.504 229.963 279.877 229.64 279.242 229.322C278.647 228.896 277.051 228.365 274.441 227.731C271.663 226.884 268.719 226.037 265.608 225.191C261.902 224.131 258.323 222.969 254.871 221.697C250.823 220.429 247.752 219.374 245.641 218.531C239.999 216.633 237.134 215.79 237.054 216.003C237.054 216.216 237.062 216.428 237.062 216.641C237.11 217.066 237.158 217.492 237.205 217.917C237.316 219.406 237.459 220.792 237.642 222.072C238.308 227.207 239.681 240.923 241.784 263.815C243.721 286.509 245.117 304.018 245.974 315.887C248.53 350.845 250.426 389.957 251.688 433.787C252.164 451.796 252.331 463.835 252.18 469.608C252.029 475.385 251.49 478.173 250.561 477.933C250.307 477.933 245.22 475.901 235.301 471.852C225.285 467.324 220.191 464.949 220.016 464.709C219.587 464.232 218.286 459.18 216.119 449.638C212.945 435.331 208.564 424.021 202.97 415.578C201.851 413.94 200.819 412.416 199.875 411.01C199.01 409.608 198.533 408.789 198.446 408.553C198.359 408.557 198.359 408.206 198.43 407.501C198.502 406.8 198.581 406.095 198.652 405.39C198.875 403.52 199.748 402.583 201.255 402.575C202.771 402.571 205.985 403.607 210.89 405.694C213.009 406.619 214.866 407.312 216.477 407.777C218.08 408.242 218.921 408.352 219 408.119C219.326 407.442 218.818 393.86 217.492 368.086C216.254 342.571 215.104 322.215 214.032 306.597C213.27 295.224 212.128 281.04 210.612 264.24C209.183 247.452 208.39 239.005 208.215 238.564C208.128 238.347 207.866 240.391 207.43 244.711C206.906 249.248 206.438 251.528 206.025 251.528C205.017 251.532 199.708 249.705 190.09 246.066C180.559 242.423 175.622 240.395 175.281 239.966C174.845 239.107 174.892 233.925 175.416 224.525C175.94 215.133 176.495 210.273 177.075 209.844C177.575 209.419 182.503 210.773 191.859 213.928C195.486 215.188 198.779 216.342 201.724 217.397C204.509 218.24 205.938 218.555 206.017 218.338C206.096 218.13 206.088 217.381 205.985 216.109C205.882 214.834 205.731 213.451 205.549 211.971C204.977 207.942 204.454 206.253 203.954 206.891C203.462 207.316 198.279 205.851 188.415 202.511C178.543 199.172 173.353 197.089 172.829 196.25C172.321 195.624 172.21 194.151 172.512 191.847C172.813 189.54 173.369 187.866 174.194 186.814C175.511 185.145 177.487 177.899 180.146 165.293C182.796 152.9 184.884 141.362 186.391 130.643C187.828 120.538 189.344 105.14 190.955 84.8985C192.574 64.8697 193.74 47.8732 194.438 33.6452C194.835 26.2496 195.065 22.4966 195.153 22.3037C195.399 21.7405 200.811 23.296 211.382 26.9978C221.952 30.7035 227.404 32.9481 227.753 33.7042C228.277 34.8463 230.388 40.4146 234.07 50.5668C242.395 73.3877 250.998 91.0458 259.91 102.939C268.814 115.032 283.154 128.146 302.899 142.354C304.597 143.366 306.2 144.587 307.732 146.013C309.001 147.233 309.724 148.049 309.898 148.458C310.946 152.554 310.049 155.743 307.216 158.016C304.383 160.304 296.312 169.456 283.083 185.802C269.854 201.96 263.441 210.624 263.783 211.459C268.457 213.247 273.139 215.038 277.813 216.834C281.94 218.311 286.368 220.11 291.09 222.229C296.312 224.352 300.486 226.159 303.605 227.648C311.612 231.48 315.628 234.37 315.652 236.308C315.66 236.953 315.303 238.568 314.58 241.159C313.779 243.963 312.898 246.668 311.922 249.271C308.7 258.376 306.494 268.521 305.319 279.744C304.224 290.759 303.827 306.459 304.161 327.189C304.502 348.372 305.811 373.926 308.121 404.296C308.549 409.435 308.938 414.594 309.287 419.768C309.406 421.651 309.517 423.301 309.628 424.714C309.732 425.896 309.787 426.601 309.795 426.837ZM239.991 183.44C241.8 181.136 244.482 177.789 248.038 173.417C252.164 168.215 255.974 163.659 259.45 159.733C268.806 148.785 273.631 143.079 273.869 142.461C274.115 141.85 271.528 139.511 266.092 135.471C249.887 123.964 237.388 112.165 228.626 100.103C225.619 95.7556 223.984 93.5937 223.73 93.5937C223.563 93.6015 222.849 99.7921 221.587 112.39C220.333 124.999 219.651 133.029 219.532 136.274C219.556 137.896 220.452 139.011 222.23 139.613C222.611 139.814 222.992 140.015 223.373 140.216C223.714 140.421 224.055 140.622 224.389 140.826C225.071 141.433 225.5 141.838 225.666 142.043C227.206 143.886 229.38 155.003 232.198 175.969C232.904 181.057 233.602 186.169 234.309 191.304C236.197 188.677 238.094 186.054 239.991 183.44ZM313.335 447.815C313.509 448.051 313.747 449.599 314.057 452.462C314.453 455.565 314.858 459.148 315.279 463.228C316.326 473.778 316.445 479.595 315.628 480.559C314.898 481.768 311.493 481.178 305.407 478.783C304.01 478.185 302.613 477.59 301.216 476.992C299.78 476.393 298.344 475.798 296.899 475.2C293.693 474.007 291.447 473.172 290.177 472.695C288.32 471.86 286.456 471.025 284.591 470.191C284.17 467.666 283.741 465.146 283.313 462.63C282.94 460.708 282.511 457.955 282.027 454.372C281.543 451.028 281.107 447.807 280.718 444.715C280.123 439.722 279.813 436.761 279.797 435.812C279.781 434.863 280.02 434.39 280.527 434.386C281.448 434.382 287.067 436.493 297.367 440.734C307.756 444.971 313.081 447.342 313.335 447.815ZM486.909 401.5C487.298 418.764 488.06 430.247 489.163 435.69C490.179 440.896 490.441 445.413 489.941 449.225C489.234 455.179 488.147 458.53 486.671 459.247C485.274 459.967 480.878 459.495 473.458 457.829C468.323 456.703 456.864 456.12 439.048 456.089C438.063 456.089 437.071 456.089 436.048 456.092C416.43 456.124 403.026 456.75 395.884 457.963C369.807 462.33 352.268 471.116 343.348 484.45C341.483 487.36 339.547 488.699 337.531 488.463C335.523 488.471 330.294 486.671 321.842 483.076C312.795 479.236 308.089 476.846 307.74 475.881C307.47 475.184 307.898 461.326 309.073 435C311.914 377.895 313.501 318.919 313.938 259.038C314.096 239.671 314.088 228.593 313.882 225.372C313.676 222.166 312.731 220.465 311.049 220.252C310.128 220.256 309.652 218.976 309.621 216.424C309.589 213.656 310.319 211.321 311.803 209.407C312.589 208.454 313.374 207.497 314.16 206.54C313.795 189.607 313.454 172.913 313.128 156.452C311.85 81.4252 310.398 45.6837 308.152 41.7929C307.295 40.4579 306.819 37.8785 306.716 34.0705C306.613 30.4514 306.994 28.2737 307.835 27.5058C308.517 26.9348 313.882 28.2264 323.929 31.4005C333.968 34.3855 339.833 36.5475 341.539 37.8785C343.07 39.2057 348.086 39.946 356.585 40.0917C365.18 40.2374 369.561 39.6388 369.735 38.2999C369.822 37.1539 371.275 37.1461 374.076 38.2763C381.393 41.1117 397.368 39.3002 422.16 32.8733C427.54 31.5738 432.246 30.2624 436.286 28.9432C441.944 27.0884 446.277 25.2139 449.301 23.3157C450.896 22.2643 452.499 21.2128 454.094 20.1653C458.903 21.6578 463.704 23.1503 468.514 24.6507C478.624 27.8326 483.933 29.6244 484.441 30.0025C486.219 30.9516 485.219 35.5275 481.497 43.8171C476.711 54.4419 472.267 72.1393 468.307 97.6341C467.315 104.211 466.625 111.323 466.244 118.99C465.768 126.657 465.831 130.938 466.419 131.745C466.926 132.556 467.164 134.187 467.157 136.628C467.141 139.283 466.887 140.507 466.379 140.306C466.046 140.306 464.363 139.802 461.332 138.786C457.879 137.778 454.3 136.561 450.594 135.148C442.642 132.568 437.627 130.438 435.548 128.76C435.032 128.339 434.691 127.945 434.54 127.579C433.873 125.96 433.54 121.089 433.572 113.051C433.699 105.246 434.413 96.6062 435.73 87.1707C436.722 80.0981 438.048 72.5764 439.73 64.6295C440.262 61.8965 440.754 59.2699 441.206 56.7456C441.65 54.6112 441.881 53.4495 441.881 53.2565C441.801 53.0635 439.881 53.3628 436.127 54.1504C436.087 54.1623 436.04 54.1741 436 54.1859C432.477 55.1586 426.302 56.0446 417.478 56.848C408.716 57.6632 404.256 58.3641 404.082 58.947C403.995 59.3329 404.034 60.597 404.193 62.7353C404.264 65.2635 404.415 67.9926 404.661 70.9264C405.145 77.0028 405.804 89.9983 406.709 110.433C407.526 131.084 408.153 148.202 408.526 161.418C408.891 172.582 409.216 178.446 409.47 178.86C409.558 179.068 413.621 178.013 421.676 175.701C429.421 173.055 434.04 171.692 435.532 171.614C435.58 171.61 435.619 171.61 435.659 171.61C436.421 171.815 438.27 172.33 441.214 173.154C444.571 174.394 447.936 175.532 451.301 176.568C454.578 177.812 457.768 178.954 460.871 179.99C463.562 181.03 464.99 181.549 465.157 181.549C466.419 181.549 466.077 185.822 464.157 194.458C462.744 200.783 461.165 211.337 459.475 226.333C457.618 241.332 456.459 254.044 455.951 264.311C455.808 267.044 455.665 269.781 455.523 272.526C456.403 272.852 457.284 273.179 458.157 273.51C458.998 273.943 460.8 274.711 463.562 275.806C466.744 276.901 469.839 277.995 472.847 279.094C476.91 280.63 480.965 282.166 485.02 283.706C485.052 287.679 485.084 291.664 485.124 295.661C485.195 303.652 485.076 308.129 484.751 309.023C484.671 309.693 479.918 308.354 470.466 305.022C467.125 303.687 462.395 301.911 456.284 299.694C454.031 298.808 451.435 297.922 448.507 297.04C447.293 296.595 446.079 296.154 444.865 295.713C444.317 295.488 443.777 295.268 443.23 295.047C442.69 294.827 442.143 294.606 441.595 294.385C439.674 293.696 437.913 293.054 436.326 292.468C429.762 290.042 426.072 288.478 425.255 287.766C424.239 286.663 423.588 284.233 423.295 280.488C422.446 270.596 423.311 251.331 426.056 223.505C427.477 210.037 428.08 203.197 427.826 202.767C427.659 202.346 424.723 202.984 419.033 204.689C413.43 206.607 410.502 207.887 410.256 208.521C410.105 209.269 410.446 232.996 411.677 282.493C413.01 332.423 414.002 358.965 414.248 359.312C414.327 359.54 415.422 360.111 417.517 361.025C419.874 362.163 422.43 363.305 425.191 364.451C432.405 367.42 436.048 369.141 436.143 369.602C436.23 369.83 436.238 370.405 436.167 371.327C436.103 372.244 435.992 373.28 435.849 374.434C435.476 377.198 433.818 379.856 430.866 382.404C430.048 383.101 428.572 384.259 426.437 385.881C424.303 387.74 422.826 389.016 422.009 389.717C417.089 393.899 414.684 398.905 414.795 404.745C414.827 406.611 414.351 407.552 413.351 407.552C412.097 407.556 406.859 405.69 397.63 401.976C388.385 398.026 383.639 395.829 383.377 395.364C383.115 394.683 382.591 382.621 381.869 359.713C381.028 329.276 380.147 297.658 379.266 265.106C378.298 232.381 377.806 216.405 377.631 215.928C377.457 215.503 374.401 215.83 368.457 216.909C362.696 218.201 358.014 219.386 354.419 220.461C350.665 221.961 348.38 223.785 347.562 225.927C346.753 228.073 346.356 233.842 346.38 243.345C346.404 280.496 346.015 316.576 345.173 351.227C344.824 365.364 344.285 382.369 343.578 402.445C342.856 422.064 342.356 434.311 342.023 438.808C341.888 440.47 341.991 441.301 342.324 441.301C342.666 441.538 343.793 441.415 345.705 440.935C346.784 440.695 348.364 440.214 350.435 439.498C352.26 438.781 354.125 438.182 356.038 437.702C360.855 436.268 375.703 435.28 400.519 434.756C417.74 434.386 430.421 434.441 438.595 434.914C442.079 435.111 444.746 435.386 446.595 435.741C449.515 436.446 452.015 436.796 454.094 436.796C456.086 437.028 457.165 436.91 457.324 436.434C457.713 435.249 457.435 431.696 456.483 425.801C455.626 420.15 455.023 408.478 454.721 391.06C454.419 374.126 454.372 365.337 454.523 364.407C454.769 364.183 459.871 365.892 469.815 369.558C475.045 371.508 480.267 373.457 485.481 375.41C486.068 375.422 486.52 384.019 486.909 401.5ZM342.697 51.9845C342.356 52.7603 342.443 57.3757 342.967 65.9369C343.769 78.8852 344.61 112.114 345.904 169.672C346.094 178.49 346.3 187.37 346.507 196.317C348.435 195.998 350.364 195.675 352.292 195.356C352.959 195.143 353.919 194.931 355.181 194.714C356.268 194.502 357.355 194.289 358.442 194.076C361.291 193.434 363.426 193.013 364.855 192.796C365.775 192.584 366.696 192.371 367.616 192.158C368.537 191.843 369.457 191.524 370.378 191.209C372.473 190.78 373.814 190.461 374.401 190.252C375.322 189.933 376.243 189.618 377.163 189.299C376.941 181.959 376.727 174.658 376.52 167.404C375.973 146.064 375.132 123.034 374.005 98.5713C372.878 74.1398 372.068 61.2546 371.473 59.0966C371.132 57.9349 368.418 56.8834 363.323 55.9383C360.95 55.5642 358.53 55.1901 356.069 54.812C353.181 54.2489 350.927 53.6818 349.316 53.1069C347.784 52.5359 346.261 52.1578 344.729 51.9767C343.459 51.7876 342.777 51.7916 342.697 51.9845ZM456.514 328.922C456.745 327.571 462.093 328.914 472.545 332.97C480.981 336.125 486.044 338.613 487.727 340.425C489.337 342.465 489.504 345.753 488.234 350.313C487.996 351.223 487.806 352.365 487.655 353.735C487.512 355.106 487.441 356.362 487.457 357.504C487.33 360.249 487.187 361.741 487.028 361.97C486.536 362.427 481.148 360.595 470.871 356.492C466.855 355.126 463.181 353.645 459.824 352.054C456.729 350.92 455.142 350.234 455.054 350.006C454.88 349.553 454.999 346.245 455.411 340.122C455.832 333.998 456.197 330.281 456.514 328.922ZM614.138 231.617C616.265 270.631 616.987 290.987 615.892 290.916C615.638 291.141 610.614 289.365 600.805 285.608C591.243 282.071 585.743 278.661 584.331 275.361C582.997 272.506 582.204 269.651 581.958 266.804C581.712 263.956 582.085 262.539 583.085 262.539C584.005 262.539 584.378 260.566 584.219 256.647C584.148 252.958 583.37 239.497 582.013 216.858C581.49 207.253 580.91 196.116 580.291 183.542C579.807 173.476 579.418 164.754 579.101 157.315C578.696 144.304 578.561 126.657 578.775 104.809C578.91 82.9689 579.355 68.8196 579.982 61.7784C580.347 57.8758 580.664 54.3749 580.926 51.2717C580.696 50.496 575.498 52.7367 565.372 58.0255C555.341 63.3181 550.42 66.3701 550.571 67.1499C550.722 67.7406 552.158 68.4179 554.864 69.1937C558.253 69.9655 560.229 70.8437 560.8 71.8243C561.467 72.6079 561.911 75.1558 562.15 79.4955C562.483 83.6502 562.896 94.7672 563.483 113.284C564.641 147.127 566.61 189.575 569.728 242.329C571.823 276.499 574.085 313.619 576.617 354.035C579.069 394.025 580.783 421.84 581.434 436.02C582.259 450.469 582.585 460.893 582.378 467.127C582.085 476.972 581.243 481.694 579.831 481.205C579.752 481.205 578.212 480.603 575.22 479.394C571.895 477.945 568.363 476.377 564.618 474.692C559.713 472.648 554.801 470.6 549.889 468.56C548.532 464.961 547.182 461.365 545.825 457.782C540.604 444.404 535.294 436.493 529.866 433.89C527.112 432.705 525.398 431.641 524.716 430.7C524.041 429.991 523.645 428.692 523.525 426.805C523.295 423.033 523.795 421.036 525.033 420.8C526.351 420.564 530.89 421.969 538.635 425.033C544.548 427.388 547.873 428.451 548.611 428.215C549.436 428.215 549.817 426.443 549.754 422.911C549.698 418.981 548 392.781 545.095 346.521C542.119 299.434 539.762 260.57 537.794 228.786C534.279 171.094 532.438 132.387 531.676 109.444C531.541 106.833 531.414 104.226 531.287 101.631C531.263 100.332 531.247 99.0321 531.223 97.7365C531.16 96.6417 531.088 95.5469 531.025 94.4521C530.858 89.0767 530.747 85.9185 530.684 84.9261C530.588 83.1461 530.493 81.37 530.398 79.594C528.144 79.6019 525.898 79.6097 523.644 79.6137C521.391 79.8224 519.137 80.0272 516.875 80.2319C516.875 80.6376 517.883 88.3718 519.946 103.762C520.978 111.464 522.018 119.218 523.065 127.027C522.922 135.853 522.787 144.749 522.668 153.711C522.533 169.798 521.565 194.175 519.978 227.845C518.319 260.511 517.494 277.55 517.24 277.724C517.074 278.161 511.899 276.625 501.702 273.124C491.591 269.619 486.401 267.552 486.147 266.894C486.068 266.689 486.33 257.329 487.012 239.186C489.417 187.256 490.956 155.645 491.036 141.468C491.107 130.426 490.449 118.876 489.044 106.857C487.639 95.2398 485.639 81.7402 483.06 66.508C479.513 46.999 478.243 37.0319 479.203 36.0474C479.378 35.6654 481.044 35.8505 484.187 36.6026C487.496 37.5477 491.195 38.6819 495.266 40.009C499.337 41.3361 502.979 42.5727 506.201 43.7186C509.249 44.6677 510.82 45.1442 510.907 45.1442C510.971 46.0106 511.042 46.8769 511.106 47.7472C511.042 51.0355 511.693 52.5831 513.058 52.3823C514.51 52.3783 519.026 50.2282 526.636 45.9515C530.358 43.8131 534.81 41.4858 540.008 38.9654C544.508 36.835 548.365 35.0944 551.563 33.7397C558.396 31.2233 565.419 30.1443 572.601 30.5026C584.64 31.6053 598.02 35.2794 612.678 41.596C613.146 41.789 613.606 41.978 614.074 42.171C614.447 42.36 614.828 42.553 615.209 42.7459C615.582 42.935 615.963 43.1279 616.344 43.3209C616.511 43.3209 616.408 46.1129 616.035 51.7443C615.749 57.3757 615.233 60.1126 614.471 59.9196C613.535 59.7267 612.9 62.1643 612.559 67.2562C612.138 72.5607 611.598 85.0836 611.067 105.333C610.225 137.841 611.138 179.344 614.138 231.617ZM500.035 285.344C501.956 286.005 503.963 286.667 506.051 287.329C507.638 287.99 509.304 288.652 511.058 289.317C512.606 289.869 514.153 290.42 515.693 290.971C515.947 290.971 516.042 293.074 515.986 297.292C515.939 301.738 515.756 304.975 515.439 306.983C515.05 309.886 514.066 311.228 512.479 311.008C510.733 311.008 505.939 309.448 498.083 306.329C489.814 302.99 485.385 301.328 484.798 301.328C483.965 301.328 483.6 297.875 483.703 291.003C483.981 284.143 484.163 280.512 484.243 280.071C484.568 279.63 489.837 281.382 500.035 285.344ZM705.925 29.2149C726.606 34.7163 736.811 39.3238 736.605 42.998C729.899 124.751 727.384 187.807 726.542 224.159C725.82 260.664 727.63 332.387 735.224 451.225C734.907 451.702 734.581 452.178 734.264 452.655C713.94 445.2 703.727 439.962 703.695 436.879C696.116 332.907 693.759 262.999 694.545 219.02C694.862 202.334 695.235 185.861 695.672 169.609C695.91 160.859 696.449 147.572 697.378 130.044C697.211 130.044 697.037 130.044 696.87 130.044C680.427 125.787 672.237 122.152 672.34 119.116C672.348 118.71 672.364 118.305 672.38 117.899C672.538 113.044 674.364 109.015 677.879 105.798C688.132 77.4596 696.822 52.8351 703.734 31.5186C704.679 29.9828 705.409 29.2149 705.925 29.2149ZM706.322 452.584C727.01 459.794 737.327 465.587 737.383 469.911C737.724 471.596 737.914 473.522 737.938 475.692C737.978 479.067 738.026 482.446 738.073 485.836C738.097 487.774 737.788 488.743 737.137 488.739C716.853 481.894 706.639 476.566 706.583 472.715C705.822 465.012 705.417 458.79 705.361 454.013C705.679 453.537 706.004 453.06 706.322 452.584ZM810.385 5C810.727 5 811.076 5 811.425 5C839.542 10.0407 854.39 16.4636 856.057 24.3081C865.048 41.1944 867.23 74.8723 863.905 128.67C863.881 129.079 863.858 129.485 863.826 129.894C863.58 133.978 865.635 142.146 870 154.566C869.952 155.397 869.905 156.224 869.857 157.055C869.77 158.713 869.381 159.544 868.706 159.544C866.516 159.544 864.326 159.544 862.128 159.544C861.929 163.281 861.731 167.03 861.532 170.791C858.334 233.067 851.684 307.649 843.089 397.739C835.042 457.632 826.416 489.231 815.766 489.042C791.76 481.414 779.657 475.105 779.618 470.053C770.468 452.962 762.722 423.19 756.778 382.156C757.112 381.691 757.437 381.231 757.77 380.77C778.753 387.528 789.196 392.214 789.189 394.777C790.387 406.899 793.799 423.308 799.473 444.274C799.632 444.274 799.799 444.274 799.958 444.274C805.64 431.279 810.695 395.856 816.21 340.96C822.281 263.511 826.813 216.228 827.702 193.486C827.535 193.486 827.368 193.486 827.202 193.486C794.506 250.295 776.594 280.512 771.118 280.358C770.039 280.354 769.198 280.799 768.603 281.681C743.843 275.251 731.486 266.878 731.661 256.62C730.153 247.452 729.518 237.04 729.772 225.446C730.828 179.08 742.668 122.664 767.309 59.2659C784.602 22.5636 799.315 5.09845 810.385 5ZM762.286 228.026C762.238 229.747 762.19 231.472 762.151 233.196C762.317 233.196 762.484 233.196 762.651 233.196C799.235 167.786 822.488 134.143 829.376 127.465C830.733 127.461 831.455 126.645 831.55 125.019C833.939 82.705 833.019 51.6144 828.122 30.097C818.805 33.8499 805.171 56.5605 788.522 100.816C771.388 153.81 763.103 197.077 762.286 228.026ZM754.016 338.117C773.745 344.509 783.554 349.096 783.538 351.841C784.451 360.068 785.379 368.345 786.316 376.666C785.99 376.666 785.824 377.131 785.816 378.053C764.547 369.909 753.866 364.849 753.874 362.777C752.921 354.511 752.469 347.667 752.501 342.209C752.509 341.752 752.509 341.299 752.509 340.842C752.525 339.027 753.024 338.117 754.016 338.117Z"/>
</mask>
<path d="M173.988 26.6946C183.019 29.459 188.256 31.2233 189.717 31.9676C190.907 32.5307 191.518 33.7554 191.55 35.6536C191.589 37.9337 190.701 40.5091 188.883 43.3839C182.535 53.7724 177.948 76.2742 175.115 112.61C173.265 137.609 172.424 155.633 172.599 165.943C172.67 170.487 172.543 172.976 172.21 173.394C172.051 173.602 170.408 173.295 167.29 172.48C163.83 171.46 160.155 170.231 156.267 168.802C154.497 168.188 152.473 167.577 150.188 166.967C149.307 166.66 148.418 166.356 147.529 166.049C147.148 165.845 146.767 165.64 146.386 165.435C146.006 165.333 145.625 165.23 145.252 165.132C142.125 164.112 140.474 163.604 140.308 163.604C139.72 163.623 139.816 154.377 140.585 136.321C141.347 118.084 142.284 103.281 143.41 91.6522C143.791 87.218 144.164 82.8035 144.545 78.4087C143.664 78.9048 142.791 79.3971 141.919 79.8933C138.831 81.4724 134.649 83.0634 129.372 84.6622C123.84 86.2611 119.865 87.0684 117.42 87.0841C113.714 87.1077 112.032 87.3125 112.381 87.7063C112.468 88.0962 114.175 88.872 117.484 90.0297C121.468 91.3844 123.761 92.4556 124.364 93.2392C124.967 94.0229 125.61 96.5787 126.285 100.934C127.777 112.571 130.634 149.36 134.657 217.007C141.799 334.884 145.275 421.954 145.49 462.228C145.625 482.19 144.966 492.247 143.522 491.995C143.093 491.511 138.062 489.353 128.435 485.533C118.547 481.469 113.476 479.201 113.222 478.716C112.619 478.535 112.143 460.03 111.722 424.521C111.397 390.245 110.603 360.788 109.381 335.652C107.937 306.936 105.58 262.759 102.136 206.327C98.7153 151.77 96.7314 124.665 96.4219 121.124C96.2076 119.12 96.0013 117.119 95.787 115.123C91.7238 113.745 87.6606 112.37 83.5974 111C80.6373 110.019 77.7566 109.043 74.9631 108.066C72.5823 107.085 71.3126 106.499 71.138 106.298C70.6857 104.919 72.0665 99.036 75.2806 88.8129C76.0742 86.4501 76.7328 84.1975 77.2725 82.0474C77.8201 80.2871 78.0502 79.3105 77.9629 79.1136C77.8756 78.9206 75.9154 77.9558 72.0824 76.2309C70.638 75.6599 68.7652 74.7975 66.4637 73.6476C64.4163 72.4937 62.5355 71.3478 60.8213 70.1939C60.0991 69.812 59.369 69.43 58.6469 69.048C58.3453 68.8589 58.0437 68.666 57.7501 68.477C57.4485 68.284 57.147 68.091 56.8454 67.902C55.7344 67.1341 55.1392 66.7561 55.0519 66.7561C54.544 66.7757 53.0441 75.207 50.5125 92.4989C47.9016 109.814 46.1081 123.672 45.1479 133.769C40.9577 177.844 41.9814 211.667 48.4254 233.051C50.2745 239.265 52.1791 243.467 54.1472 245.613C56.0994 247.551 60.4166 249.799 67.0907 252.375C76.963 256.234 83.3593 259.798 86.2559 263.059C89.7636 267.406 93.1919 275.357 96.533 287.049C99.8819 298.965 102.453 312.43 104.231 327.536C105.262 335.884 105.889 350.12 106.112 370.626C106.326 390.213 105.834 405.461 104.667 416.062C101.787 442.943 97.3821 460.724 91.4857 468.71C88.3669 472.841 79.7326 471.927 65.5829 465.997C53.4726 461.019 45.624 454.336 42.029 445.991C40.7434 442.896 39.9736 441.349 39.7197 441.352C39.553 441.352 39.0927 444.57 38.3468 451.048C37.5056 457.762 37.0056 461.385 36.831 461.866C36.6643 462.594 32.1488 461.421 23.2844 458.361C14.4993 455.297 8.87273 453.06 6.40466 451.639C5.46822 450.926 5 449.13 5 446.259C5.0873 443.388 5.65075 436.918 6.65861 426.951C7.75377 416.519 9.26953 397.566 11.1027 370.775C12.8486 344.918 14.1184 323.365 14.9755 305.727C15.2532 298.583 15.5627 291.818 15.9198 285.415C16.2055 279.897 16.3801 277.046 16.4595 276.822C16.6261 276.164 21.7289 277.783 31.7837 281.701C42.3385 285.403 47.6556 287.258 47.7429 287.258C48.4095 287.262 48.6476 292.976 48.4333 304.569C48.3698 310.366 48.3063 316.19 48.2349 322.042C49.4094 330.363 50.576 338.735 51.7505 347.163C53.9091 363.112 55.909 376.733 57.766 387.886C59.0913 396.018 60.8372 405.127 63.0196 415.243C65.2892 425.364 66.6304 430.476 67.051 430.468C67.5589 430.468 68.5509 425.939 70.019 416.968C71.3999 408.474 72.4078 400.976 73.0268 394.439C73.8124 385.807 74.0902 373.843 73.868 358.713C73.6378 343.359 73.003 331.269 71.9872 322.271C70.5825 309.448 68.4239 297.209 65.5035 285.521C62.591 274.061 59.8055 266.662 57.1549 263.181C56.1312 261.877 51.814 259.605 44.2114 256.38C32.7281 252.083 25.1811 246.921 21.5781 240.907C15.9913 231.901 12.3645 214.916 10.6186 190.662C8.11882 157.039 11.8963 111.504 21.7051 57.1867C25.2049 38.2211 27.5063 29.8489 28.657 31.5068C28.9189 31.6919 29.5141 31.8731 30.4426 32.0542C31.5457 32.2314 32.6488 32.3181 33.7439 32.3102C36.6882 32.0975 42.9337 33.4561 52.4648 36.4018C61.8292 39.3474 67.0272 41.4936 68.0747 42.8129C68.5192 43.38 68.9159 44.14 69.281 45.0851C69.6381 46.0342 69.9159 46.8887 70.1063 47.6527C70.3127 49.1767 72.0348 52.1184 75.2647 56.5054C78.574 60.8963 81.5658 64.2554 84.2323 66.5552C86.7242 68.662 89.6525 69.4221 93.0094 68.8196C102.16 67.2129 113.492 61.8965 127.062 52.9808C140.72 44.0691 150.442 35.5433 156.211 27.3916C157.449 25.6864 158.687 23.9813 159.925 22.284C164.615 23.7489 169.297 25.2217 173.988 26.6946ZM173.194 202.882C173.861 213.223 174.369 219.201 174.726 220.685C175.178 222.816 175.424 224.95 175.456 227.089C175.495 229.444 174.591 230.519 172.742 230.31C170.726 230.101 165.456 228.408 156.933 225.234C152.338 223.54 147.736 221.851 143.141 220.166C142.807 218.035 142.482 215.913 142.157 213.79C141.879 212.097 141.617 209.127 141.387 204.902C141.054 200.259 140.815 195.844 140.665 191.654C140.403 186.314 140.149 180.998 139.887 175.705C140.522 176.013 141.157 176.324 141.792 176.631C142.212 176.839 144.029 177.556 147.244 178.793C148.005 179.1 148.767 179.411 149.529 179.718C150.41 180.025 151.299 180.336 152.188 180.644C154.553 181.467 156.402 182.085 157.759 182.494C167.298 185.795 172.107 187.555 172.194 187.764C172.305 189.331 172.408 190.902 172.519 192.473C172.638 194.36 172.742 195.939 172.845 197.195C172.964 199.089 173.075 200.983 173.194 202.882ZM309.795 426.837C309.803 427.309 308.248 426.963 305.129 425.789C301.843 424.86 298.098 423.572 293.876 421.938C288.519 419.835 283.162 417.736 277.797 415.641C277.639 413.877 277.488 412.117 277.329 410.36C274.718 381.305 273.155 350.825 272.655 319.175C272.179 294.496 272.33 278.732 273.052 271.269C274.266 257.246 276.282 245.885 279.099 237.052C279.773 234.791 280.456 232.535 281.138 230.282C280.504 229.963 279.877 229.64 279.242 229.322C278.647 228.896 277.051 228.365 274.441 227.731C271.663 226.884 268.719 226.037 265.608 225.191C261.902 224.131 258.323 222.969 254.871 221.697C250.823 220.429 247.752 219.374 245.641 218.531C239.999 216.633 237.134 215.79 237.054 216.003C237.054 216.216 237.062 216.428 237.062 216.641C237.11 217.066 237.158 217.492 237.205 217.917C237.316 219.406 237.459 220.792 237.642 222.072C238.308 227.207 239.681 240.923 241.784 263.815C243.721 286.509 245.117 304.018 245.974 315.887C248.53 350.845 250.426 389.957 251.688 433.787C252.164 451.796 252.331 463.835 252.18 469.608C252.029 475.385 251.49 478.173 250.561 477.933C250.307 477.933 245.22 475.901 235.301 471.852C225.285 467.324 220.191 464.949 220.016 464.709C219.587 464.232 218.286 459.18 216.119 449.638C212.945 435.331 208.564 424.021 202.97 415.578C201.851 413.94 200.819 412.416 199.875 411.01C199.01 409.608 198.533 408.789 198.446 408.553C198.359 408.557 198.359 408.206 198.43 407.501C198.502 406.8 198.581 406.095 198.652 405.39C198.875 403.52 199.748 402.583 201.255 402.575C202.771 402.571 205.985 403.607 210.89 405.694C213.009 406.619 214.866 407.312 216.477 407.777C218.08 408.242 218.921 408.352 219 408.119C219.326 407.442 218.818 393.86 217.492 368.086C216.254 342.571 215.104 322.215 214.032 306.597C213.27 295.224 212.128 281.04 210.612 264.24C209.183 247.452 208.39 239.005 208.215 238.564C208.128 238.347 207.866 240.391 207.43 244.711C206.906 249.248 206.438 251.528 206.025 251.528C205.017 251.532 199.708 249.705 190.09 246.066C180.559 242.423 175.622 240.395 175.281 239.966C174.845 239.107 174.892 233.925 175.416 224.525C175.94 215.133 176.495 210.273 177.075 209.844C177.575 209.419 182.503 210.773 191.859 213.928C195.486 215.188 198.779 216.342 201.724 217.397C204.509 218.24 205.938 218.555 206.017 218.338C206.096 218.13 206.088 217.381 205.985 216.109C205.882 214.834 205.731 213.451 205.549 211.971C204.977 207.942 204.454 206.253 203.954 206.891C203.462 207.316 198.279 205.851 188.415 202.511C178.543 199.172 173.353 197.089 172.829 196.25C172.321 195.624 172.21 194.151 172.512 191.847C172.813 189.54 173.369 187.866 174.194 186.814C175.511 185.145 177.487 177.899 180.146 165.293C182.796 152.9 184.884 141.362 186.391 130.643C187.828 120.538 189.344 105.14 190.955 84.8985C192.574 64.8697 193.74 47.8732 194.438 33.6452C194.835 26.2496 195.065 22.4966 195.153 22.3037C195.399 21.7405 200.811 23.296 211.382 26.9978C221.952 30.7035 227.404 32.9481 227.753 33.7042C228.277 34.8463 230.388 40.4146 234.07 50.5668C242.395 73.3877 250.998 91.0458 259.91 102.939C268.814 115.032 283.154 128.146 302.899 142.354C304.597 143.366 306.2 144.587 307.732 146.013C309.001 147.233 309.724 148.049 309.898 148.458C310.946 152.554 310.049 155.743 307.216 158.016C304.383 160.304 296.312 169.456 283.083 185.802C269.854 201.96 263.441 210.624 263.783 211.459C268.457 213.247 273.139 215.038 277.813 216.834C281.94 218.311 286.368 220.11 291.09 222.229C296.312 224.352 300.486 226.159 303.605 227.648C311.612 231.48 315.628 234.37 315.652 236.308C315.66 236.953 315.303 238.568 314.58 241.159C313.779 243.963 312.898 246.668 311.922 249.271C308.7 258.376 306.494 268.521 305.319 279.744C304.224 290.759 303.827 306.459 304.161 327.189C304.502 348.372 305.811 373.926 308.121 404.296C308.549 409.435 308.938 414.594 309.287 419.768C309.406 421.651 309.517 423.301 309.628 424.714C309.732 425.896 309.787 426.601 309.795 426.837ZM239.991 183.44C241.8 181.136 244.482 177.789 248.038 173.417C252.164 168.215 255.974 163.659 259.45 159.733C268.806 148.785 273.631 143.079 273.869 142.461C274.115 141.85 271.528 139.511 266.092 135.471C249.887 123.964 237.388 112.165 228.626 100.103C225.619 95.7556 223.984 93.5937 223.73 93.5937C223.563 93.6015 222.849 99.7921 221.587 112.39C220.333 124.999 219.651 133.029 219.532 136.274C219.556 137.896 220.452 139.011 222.23 139.613C222.611 139.814 222.992 140.015 223.373 140.216C223.714 140.421 224.055 140.622 224.389 140.826C225.071 141.433 225.5 141.838 225.666 142.043C227.206 143.886 229.38 155.003 232.198 175.969C232.904 181.057 233.602 186.169 234.309 191.304C236.197 188.677 238.094 186.054 239.991 183.44ZM313.335 447.815C313.509 448.051 313.747 449.599 314.057 452.462C314.453 455.565 314.858 459.148 315.279 463.228C316.326 473.778 316.445 479.595 315.628 480.559C314.898 481.768 311.493 481.178 305.407 478.783C304.01 478.185 302.613 477.59 301.216 476.992C299.78 476.393 298.344 475.798 296.899 475.2C293.693 474.007 291.447 473.172 290.177 472.695C288.32 471.86 286.456 471.025 284.591 470.191C284.17 467.666 283.741 465.146 283.313 462.63C282.94 460.708 282.511 457.955 282.027 454.372C281.543 451.028 281.107 447.807 280.718 444.715C280.123 439.722 279.813 436.761 279.797 435.812C279.781 434.863 280.02 434.39 280.527 434.386C281.448 434.382 287.067 436.493 297.367 440.734C307.756 444.971 313.081 447.342 313.335 447.815ZM486.909 401.5C487.298 418.764 488.06 430.247 489.163 435.69C490.179 440.896 490.441 445.413 489.941 449.225C489.234 455.179 488.147 458.53 486.671 459.247C485.274 459.967 480.878 459.495 473.458 457.829C468.323 456.703 456.864 456.12 439.048 456.089C438.063 456.089 437.071 456.089 436.048 456.092C416.43 456.124 403.026 456.75 395.884 457.963C369.807 462.33 352.268 471.116 343.348 484.45C341.483 487.36 339.547 488.699 337.531 488.463C335.523 488.471 330.294 486.671 321.842 483.076C312.795 479.236 308.089 476.846 307.74 475.881C307.47 475.184 307.898 461.326 309.073 435C311.914 377.895 313.501 318.919 313.938 259.038C314.096 239.671 314.088 228.593 313.882 225.372C313.676 222.166 312.731 220.465 311.049 220.252C310.128 220.256 309.652 218.976 309.621 216.424C309.589 213.656 310.319 211.321 311.803 209.407C312.589 208.454 313.374 207.497 314.16 206.54C313.795 189.607 313.454 172.913 313.128 156.452C311.85 81.4252 310.398 45.6837 308.152 41.7929C307.295 40.4579 306.819 37.8785 306.716 34.0705C306.613 30.4514 306.994 28.2737 307.835 27.5058C308.517 26.9348 313.882 28.2264 323.929 31.4005C333.968 34.3855 339.833 36.5475 341.539 37.8785C343.07 39.2057 348.086 39.946 356.585 40.0917C365.18 40.2374 369.561 39.6388 369.735 38.2999C369.822 37.1539 371.275 37.1461 374.076 38.2763C381.393 41.1117 397.368 39.3002 422.16 32.8733C427.54 31.5738 432.246 30.2624 436.286 28.9432C441.944 27.0884 446.277 25.2139 449.301 23.3157C450.896 22.2643 452.499 21.2128 454.094 20.1653C458.903 21.6578 463.704 23.1503 468.514 24.6507C478.624 27.8326 483.933 29.6244 484.441 30.0025C486.219 30.9516 485.219 35.5275 481.497 43.8171C476.711 54.4419 472.267 72.1393 468.307 97.6341C467.315 104.211 466.625 111.323 466.244 118.99C465.768 126.657 465.831 130.938 466.419 131.745C466.926 132.556 467.164 134.187 467.157 136.628C467.141 139.283 466.887 140.507 466.379 140.306C466.046 140.306 464.363 139.802 461.332 138.786C457.879 137.778 454.3 136.561 450.594 135.148C442.642 132.568 437.627 130.438 435.548 128.76C435.032 128.339 434.691 127.945 434.54 127.579C433.873 125.96 433.54 121.089 433.572 113.051C433.699 105.246 434.413 96.6062 435.73 87.1707C436.722 80.0981 438.048 72.5764 439.73 64.6295C440.262 61.8965 440.754 59.2699 441.206 56.7456C441.65 54.6112 441.881 53.4495 441.881 53.2565C441.801 53.0635 439.881 53.3628 436.127 54.1504C436.087 54.1623 436.04 54.1741 436 54.1859C432.477 55.1586 426.302 56.0446 417.478 56.848C408.716 57.6632 404.256 58.3641 404.082 58.947C403.995 59.3329 404.034 60.597 404.193 62.7353C404.264 65.2635 404.415 67.9926 404.661 70.9264C405.145 77.0028 405.804 89.9983 406.709 110.433C407.526 131.084 408.153 148.202 408.526 161.418C408.891 172.582 409.216 178.446 409.47 178.86C409.558 179.068 413.621 178.013 421.676 175.701C429.421 173.055 434.04 171.692 435.532 171.614C435.58 171.61 435.619 171.61 435.659 171.61C436.421 171.815 438.27 172.33 441.214 173.154C444.571 174.394 447.936 175.532 451.301 176.568C454.578 177.812 457.768 178.954 460.871 179.99C463.562 181.03 464.99 181.549 465.157 181.549C466.419 181.549 466.077 185.822 464.157 194.458C462.744 200.783 461.165 211.337 459.475 226.333C457.618 241.332 456.459 254.044 455.951 264.311C455.808 267.044 455.665 269.781 455.523 272.526C456.403 272.852 457.284 273.179 458.157 273.51C458.998 273.943 460.8 274.711 463.562 275.806C466.744 276.901 469.839 277.995 472.847 279.094C476.91 280.63 480.965 282.166 485.02 283.706C485.052 287.679 485.084 291.664 485.124 295.661C485.195 303.652 485.076 308.129 484.751 309.023C484.671 309.693 479.918 308.354 470.466 305.022C467.125 303.687 462.395 301.911 456.284 299.694C454.031 298.808 451.435 297.922 448.507 297.04C447.293 296.595 446.079 296.154 444.865 295.713C444.317 295.488 443.777 295.268 443.23 295.047C442.69 294.827 442.143 294.606 441.595 294.385C439.674 293.696 437.913 293.054 436.326 292.468C429.762 290.042 426.072 288.478 425.255 287.766C424.239 286.663 423.588 284.233 423.295 280.488C422.446 270.596 423.311 251.331 426.056 223.505C427.477 210.037 428.08 203.197 427.826 202.767C427.659 202.346 424.723 202.984 419.033 204.689C413.43 206.607 410.502 207.887 410.256 208.521C410.105 209.269 410.446 232.996 411.677 282.493C413.01 332.423 414.002 358.965 414.248 359.312C414.327 359.54 415.422 360.111 417.517 361.025C419.874 362.163 422.43 363.305 425.191 364.451C432.405 367.42 436.048 369.141 436.143 369.602C436.23 369.83 436.238 370.405 436.167 371.327C436.103 372.244 435.992 373.28 435.849 374.434C435.476 377.198 433.818 379.856 430.866 382.404C430.048 383.101 428.572 384.259 426.437 385.881C424.303 387.74 422.826 389.016 422.009 389.717C417.089 393.899 414.684 398.905 414.795 404.745C414.827 406.611 414.351 407.552 413.351 407.552C412.097 407.556 406.859 405.69 397.63 401.976C388.385 398.026 383.639 395.829 383.377 395.364C383.115 394.683 382.591 382.621 381.869 359.713C381.028 329.276 380.147 297.658 379.266 265.106C378.298 232.381 377.806 216.405 377.631 215.928C377.457 215.503 374.401 215.83 368.457 216.909C362.696 218.201 358.014 219.386 354.419 220.461C350.665 221.961 348.38 223.785 347.562 225.927C346.753 228.073 346.356 233.842 346.38 243.345C346.404 280.496 346.015 316.576 345.173 351.227C344.824 365.364 344.285 382.369 343.578 402.445C342.856 422.064 342.356 434.311 342.023 438.808C341.888 440.47 341.991 441.301 342.324 441.301C342.666 441.538 343.793 441.415 345.705 440.935C346.784 440.695 348.364 440.214 350.435 439.498C352.26 438.781 354.125 438.182 356.038 437.702C360.855 436.268 375.703 435.28 400.519 434.756C417.74 434.386 430.421 434.441 438.595 434.914C442.079 435.111 444.746 435.386 446.595 435.741C449.515 436.446 452.015 436.796 454.094 436.796C456.086 437.028 457.165 436.91 457.324 436.434C457.713 435.249 457.435 431.696 456.483 425.801C455.626 420.15 455.023 408.478 454.721 391.06C454.419 374.126 454.372 365.337 454.523 364.407C454.769 364.183 459.871 365.892 469.815 369.558C475.045 371.508 480.267 373.457 485.481 375.41C486.068 375.422 486.52 384.019 486.909 401.5ZM342.697 51.9845C342.356 52.7603 342.443 57.3757 342.967 65.9369C343.769 78.8852 344.61 112.114 345.904 169.672C346.094 178.49 346.3 187.37 346.507 196.317C348.435 195.998 350.364 195.675 352.292 195.356C352.959 195.143 353.919 194.931 355.181 194.714C356.268 194.502 357.355 194.289 358.442 194.076C361.291 193.434 363.426 193.013 364.855 192.796C365.775 192.584 366.696 192.371 367.616 192.158C368.537 191.843 369.457 191.524 370.378 191.209C372.473 190.78 373.814 190.461 374.401 190.252C375.322 189.933 376.243 189.618 377.163 189.299C376.941 181.959 376.727 174.658 376.52 167.404C375.973 146.064 375.132 123.034 374.005 98.5713C372.878 74.1398 372.068 61.2546 371.473 59.0966C371.132 57.9349 368.418 56.8834 363.323 55.9383C360.95 55.5642 358.53 55.1901 356.069 54.812C353.181 54.2489 350.927 53.6818 349.316 53.1069C347.784 52.5359 346.261 52.1578 344.729 51.9767C343.459 51.7876 342.777 51.7916 342.697 51.9845ZM456.514 328.922C456.745 327.571 462.093 328.914 472.545 332.97C480.981 336.125 486.044 338.613 487.727 340.425C489.337 342.465 489.504 345.753 488.234 350.313C487.996 351.223 487.806 352.365 487.655 353.735C487.512 355.106 487.441 356.362 487.457 357.504C487.33 360.249 487.187 361.741 487.028 361.97C486.536 362.427 481.148 360.595 470.871 356.492C466.855 355.126 463.181 353.645 459.824 352.054C456.729 350.92 455.142 350.234 455.054 350.006C454.88 349.553 454.999 346.245 455.411 340.122C455.832 333.998 456.197 330.281 456.514 328.922ZM614.138 231.617C616.265 270.631 616.987 290.987 615.892 290.916C615.638 291.141 610.614 289.365 600.805 285.608C591.243 282.071 585.743 278.661 584.331 275.361C582.997 272.506 582.204 269.651 581.958 266.804C581.712 263.956 582.085 262.539 583.085 262.539C584.005 262.539 584.378 260.566 584.219 256.647C584.148 252.958 583.37 239.497 582.013 216.858C581.49 207.253 580.91 196.116 580.291 183.542C579.807 173.476 579.418 164.754 579.101 157.315C578.696 144.304 578.561 126.657 578.775 104.809C578.91 82.9689 579.355 68.8196 579.982 61.7784C580.347 57.8758 580.664 54.3749 580.926 51.2717C580.696 50.496 575.498 52.7367 565.372 58.0255C555.341 63.3181 550.42 66.3701 550.571 67.1499C550.722 67.7406 552.158 68.4179 554.864 69.1937C558.253 69.9655 560.229 70.8437 560.8 71.8243C561.467 72.6079 561.911 75.1558 562.15 79.4955C562.483 83.6502 562.896 94.7672 563.483 113.284C564.641 147.127 566.61 189.575 569.728 242.329C571.823 276.499 574.085 313.619 576.617 354.035C579.069 394.025 580.783 421.84 581.434 436.02C582.259 450.469 582.585 460.893 582.378 467.127C582.085 476.972 581.243 481.694 579.831 481.205C579.752 481.205 578.212 480.603 575.22 479.394C571.895 477.945 568.363 476.377 564.618 474.692C559.713 472.648 554.801 470.6 549.889 468.56C548.532 464.961 547.182 461.365 545.825 457.782C540.604 444.404 535.294 436.493 529.866 433.89C527.112 432.705 525.398 431.641 524.716 430.7C524.041 429.991 523.645 428.692 523.525 426.805C523.295 423.033 523.795 421.036 525.033 420.8C526.351 420.564 530.89 421.969 538.635 425.033C544.548 427.388 547.873 428.451 548.611 428.215C549.436 428.215 549.817 426.443 549.754 422.911C549.698 418.981 548 392.781 545.095 346.521C542.119 299.434 539.762 260.57 537.794 228.786C534.279 171.094 532.438 132.387 531.676 109.444C531.541 106.833 531.414 104.226 531.287 101.631C531.263 100.332 531.247 99.0321 531.223 97.7365C531.16 96.6417 531.088 95.5469 531.025 94.4521C530.858 89.0767 530.747 85.9185 530.684 84.9261C530.588 83.1461 530.493 81.37 530.398 79.594C528.144 79.6019 525.898 79.6097 523.644 79.6137C521.391 79.8224 519.137 80.0272 516.875 80.2319C516.875 80.6376 517.883 88.3718 519.946 103.762C520.978 111.464 522.018 119.218 523.065 127.027C522.922 135.853 522.787 144.749 522.668 153.711C522.533 169.798 521.565 194.175 519.978 227.845C518.319 260.511 517.494 277.55 517.24 277.724C517.074 278.161 511.899 276.625 501.702 273.124C491.591 269.619 486.401 267.552 486.147 266.894C486.068 266.689 486.33 257.329 487.012 239.186C489.417 187.256 490.956 155.645 491.036 141.468C491.107 130.426 490.449 118.876 489.044 106.857C487.639 95.2398 485.639 81.7402 483.06 66.508C479.513 46.999 478.243 37.0319 479.203 36.0474C479.378 35.6654 481.044 35.8505 484.187 36.6026C487.496 37.5477 491.195 38.6819 495.266 40.009C499.337 41.3361 502.979 42.5727 506.201 43.7186C509.249 44.6677 510.82 45.1442 510.907 45.1442C510.971 46.0106 511.042 46.8769 511.106 47.7472C511.042 51.0355 511.693 52.5831 513.058 52.3823C514.51 52.3783 519.026 50.2282 526.636 45.9515C530.358 43.8131 534.81 41.4858 540.008 38.9654C544.508 36.835 548.365 35.0944 551.563 33.7397C558.396 31.2233 565.419 30.1443 572.601 30.5026C584.64 31.6053 598.02 35.2794 612.678 41.596C613.146 41.789 613.606 41.978 614.074 42.171C614.447 42.36 614.828 42.553 615.209 42.7459C615.582 42.935 615.963 43.1279 616.344 43.3209C616.511 43.3209 616.408 46.1129 616.035 51.7443C615.749 57.3757 615.233 60.1126 614.471 59.9196C613.535 59.7267 612.9 62.1643 612.559 67.2562C612.138 72.5607 611.598 85.0836 611.067 105.333C610.225 137.841 611.138 179.344 614.138 231.617ZM500.035 285.344C501.956 286.005 503.963 286.667 506.051 287.329C507.638 287.99 509.304 288.652 511.058 289.317C512.606 289.869 514.153 290.42 515.693 290.971C515.947 290.971 516.042 293.074 515.986 297.292C515.939 301.738 515.756 304.975 515.439 306.983C515.05 309.886 514.066 311.228 512.479 311.008C510.733 311.008 505.939 309.448 498.083 306.329C489.814 302.99 485.385 301.328 484.798 301.328C483.965 301.328 483.6 297.875 483.703 291.003C483.981 284.143 484.163 280.512 484.243 280.071C484.568 279.63 489.837 281.382 500.035 285.344ZM705.925 29.2149C726.606 34.7163 736.811 39.3238 736.605 42.998C729.899 124.751 727.384 187.807 726.542 224.159C725.82 260.664 727.63 332.387 735.224 451.225C734.907 451.702 734.581 452.178 734.264 452.655C713.94 445.2 703.727 439.962 703.695 436.879C696.116 332.907 693.759 262.999 694.545 219.02C694.862 202.334 695.235 185.861 695.672 169.609C695.91 160.859 696.449 147.572 697.378 130.044C697.211 130.044 697.037 130.044 696.87 130.044C680.427 125.787 672.237 122.152 672.34 119.116C672.348 118.71 672.364 118.305 672.38 117.899C672.538 113.044 674.364 109.015 677.879 105.798C688.132 77.4596 696.822 52.8351 703.734 31.5186C704.679 29.9828 705.409 29.2149 705.925 29.2149ZM706.322 452.584C727.01 459.794 737.327 465.587 737.383 469.911C737.724 471.596 737.914 473.522 737.938 475.692C737.978 479.067 738.026 482.446 738.073 485.836C738.097 487.774 737.788 488.743 737.137 488.739C716.853 481.894 706.639 476.566 706.583 472.715C705.822 465.012 705.417 458.79 705.361 454.013C705.679 453.537 706.004 453.06 706.322 452.584ZM810.385 5C810.727 5 811.076 5 811.425 5C839.542 10.0407 854.39 16.4636 856.057 24.3081C865.048 41.1944 867.23 74.8723 863.905 128.67C863.881 129.079 863.858 129.485 863.826 129.894C863.58 133.978 865.635 142.146 870 154.566C869.952 155.397 869.905 156.224 869.857 157.055C869.77 158.713 869.381 159.544 868.706 159.544C866.516 159.544 864.326 159.544 862.128 159.544C861.929 163.281 861.731 167.03 861.532 170.791C858.334 233.067 851.684 307.649 843.089 397.739C835.042 457.632 826.416 489.231 815.766 489.042C791.76 481.414 779.657 475.105 779.618 470.053C770.468 452.962 762.722 423.19 756.778 382.156C757.112 381.691 757.437 381.231 757.77 380.77C778.753 387.528 789.196 392.214 789.189 394.777C790.387 406.899 793.799 423.308 799.473 444.274C799.632 444.274 799.799 444.274 799.958 444.274C805.64 431.279 810.695 395.856 816.21 340.96C822.281 263.511 826.813 216.228 827.702 193.486C827.535 193.486 827.368 193.486 827.202 193.486C794.506 250.295 776.594 280.512 771.118 280.358C770.039 280.354 769.198 280.799 768.603 281.681C743.843 275.251 731.486 266.878 731.661 256.62C730.153 247.452 729.518 237.04 729.772 225.446C730.828 179.08 742.668 122.664 767.309 59.2659C784.602 22.5636 799.315 5.09845 810.385 5ZM762.286 228.026C762.238 229.747 762.19 231.472 762.151 233.196C762.317 233.196 762.484 233.196 762.651 233.196C799.235 167.786 822.488 134.143 829.376 127.465C830.733 127.461 831.455 126.645 831.55 125.019C833.939 82.705 833.019 51.6144 828.122 30.097C818.805 33.8499 805.171 56.5605 788.522 100.816C771.388 153.81 763.103 197.077 762.286 228.026ZM754.016 338.117C773.745 344.509 783.554 349.096 783.538 351.841C784.451 360.068 785.379 368.345 786.316 376.666C785.99 376.666 785.824 377.131 785.816 378.053C764.547 369.909 753.866 364.849 753.874 362.777C752.921 354.511 752.469 347.667 752.501 342.209C752.509 341.752 752.509 341.299 752.509 340.842C752.525 339.027 753.024 338.117 754.016 338.117Z" stroke="#F49B61" stroke-width="10" mask="url(#path-1-outside-1_34_91)"/>
</svg>
